<?xml version="1.0" encoding="utf-8"?>
<!-- Generator: Adobe Illustrator 30.0.0, SVG Export Plug-In . SVG Version: 9.03 Build 0)  -->
<svg version="1.1" id="Layer_3" xmlns="http://www.w3.org/2000/svg" xmlns:xlink="http://www.w3.org/1999/xlink" x="0px" y="0px"
	 viewBox="0 0 102.0277405 102.027771" style="enable-background:new 0 0 102.0277405 102.027771;" xml:space="preserve">
<g>
	<path style="fill:#FFFFFF;" d="M51.0140076,101.0280762c-27.578125,0-50.0141602-22.4365234-50.0141602-50.0141602
		S23.4358826,1.0002441,51.0140076,1.0002441c27.5776367,0,50.0141602,22.4360352,50.0141602,50.0136719
		S78.5916443,101.0280762,51.0140076,101.0280762z"/>
	<path style="fill:#FFFFFF;" d="M51.0138855,2c27.0695801,0,49.013855,21.9442596,49.013855,49.0138855
		s-21.9442749,49.0138855-49.013855,49.0138855C23.9442444,100.027771,2,78.0834961,2,51.0138855S23.9442444,2,51.0138855,2
		 M51.0138855,0C22.8847351,0,0,22.8847351,0,51.0138855s22.8847351,51.0138855,51.0138855,51.0138855
		s51.013855-22.8847351,51.013855-51.0138855S79.1430359,0,51.0138855,0L51.0138855,0z"/>
</g>
<g>
	<path style="fill:#FFFFFF;" d="M51.0140076,98.0280762c-25.9238281,0-47.0141602-21.0908203-47.0141602-47.0141602
		S25.0901794,4.0002441,51.0140076,4.0002441c25.9233398,0,47.0141602,21.090332,47.0141602,47.0136719
		S76.9373474,98.0280762,51.0140076,98.0280762z"/>
	<path style="fill:#7F7F7F;" d="M51.0138855,6c24.8207397,0,45.013855,20.1931458,45.013855,45.0138855
		S75.8346252,96.027771,51.0138855,96.027771S6,75.8346252,6,51.0138855S26.1931458,6,51.0138855,6 M51.0138855,2
		C23.9442444,2,2,23.9442596,2,51.0138855s21.9442444,49.0138855,49.0138855,49.0138855
		c27.0695801,0,49.013855-21.9442749,49.013855-49.0138855S78.0834656,2,51.0138855,2L51.0138855,2z"/>
</g>
<g id="Sun_00000041999069898996702260000011661944789527535773_">
	<path style="fill:#363636;" d="M67.0343933,28.2297554c-1.360939,0-1.3664169-1.1851578-2.4397888-4.8403606
		c-0.5073547-1.7283459,2.1052856-2.4955177,2.6126328-0.76717C67.8031998,24.6516552,69.5326843,28.2297554,67.0343933,28.2297554z
		"/>
	<path style="fill:#363636;" d="M72.5212631,26.4843407c0.7352982-2.5039425,0.9652863-5.32827,2.8240433-4.7848492
		c1.7485809,0.5130558,0.7054596,2.4298038-0.2114029,5.552021C74.6266403,28.9795074,72.0140152,28.2123394,72.5212631,26.4843407z
		"/>
	<path style="fill:#363636;" d="M78.6463394,29.514801c2.4981613-2.1644917,3.7776031-3.872221,4.9666672-2.5019493
		c1.1934204,1.377142-0.7004166,2.4080162-3.1836929,4.5601501C79.0866089,32.7370224,77.2777863,30.7008801,78.6463394,29.514801z"
		/>
	<path style="fill:#363636;" d="M82.1617661,35.3726273c3.2717743-0.4704704,5.2759323-1.2161903,5.5334091,0.5797005
		c0.2593994,1.8037376-1.8932114,1.6476555-5.1458359,2.1153717C80.7493057,38.3313408,80.3943024,35.626812,82.1617661,35.3726273z
		"/>
	<path style="fill:#363636;" d="M80.827858,44.6794014c-1.6387329-0.7488632-0.5079727-3.2243233,1.1314774-2.4770203
		c2.3739319,1.0841484,5.1419907,1.716423,4.3374405,3.4778671C85.4996643,47.4250908,83.4822083,45.891613,80.827858,44.6794014z"
		/>
	<path style="fill:#363636;" d="M79.1263199,53.3237076c-0.9908524,0-1.089859-0.5366859-3.3249664-4.0143547
		c-0.9740829-1.5156822,1.315506-2.9873695,2.2908783-1.4725151C78.6258469,48.667099,82.4562378,53.3237076,79.1263199,53.3237076z
		"/>
	<path style="fill:#363636;" d="M73.3867035,44.5596542c0.3013153,0.8324051,0.5351562,1.7281303,0.6904678,2.6864738
		c11.0864716-4.8053093,4.7091904-21.5523453-6.7294922-17.8191624c0.3802567,0.8189011,0.6781693,1.6795998,0.8854599,2.5722923
		C76.2047501,29.4577332,80.7597656,40.7901535,73.3867035,44.5596542z"/>
</g>
<g id="Particles_00000177468355003482529660000004125329127359105188_">
	<path style="fill:#363636;" d="M51.0138702,19.9853058c0,2.3159943-3.5009918,2.3159943-3.5009918,0
		S51.0138702,17.6693134,51.0138702,19.9853058z"/>
	<path style="fill:#363636;" d="M48.4780884,34.1719322c0,2.3159943-3.5009918,2.3159943-3.5009918,0
		S48.4780884,31.8559399,48.4780884,34.1719322z"/>
	<path style="fill:#363636;" d="M51.1822052,28.433073c0,1.2693539-1.9188309,1.2693539-1.9188309,0
		S51.1822052,27.1637192,51.1822052,28.433073z"/>
	<path style="fill:#363636;" d="M29.0555878,38.9196701c0.7043476,1.0560074-0.8919754,2.1207428-1.596323,1.0647354
		S28.3512402,37.8636627,29.0555878,38.9196701z"/>
	<path style="fill:#363636;" d="M38.8202667,24.0771446c0.7043457,1.0560074-0.8919754,2.1207409-1.5963249,1.0647335
		C36.5195961,24.0858707,38.115921,23.0211372,38.8202667,24.0771446z"/>
	<path style="fill:#363636;" d="M67.6499176,52.103199c0.7043457,1.0560074-0.8919754,2.1207428-1.5963211,1.0647316
		C65.3492508,52.1119232,66.9455719,51.0471916,67.6499176,52.103199z"/>
	<path style="fill:#363636;" d="M58.488842,58.2135544c0.7043495,1.0560074-0.8919754,2.120739-1.5963211,1.0647316
		C56.1881714,58.2222786,57.7844963,57.157547,58.488842,58.2135544z"/>
	<path style="fill:#363636;" d="M44.0118904,27.4736595c0,2.3159924-3.5009918,2.3159924-3.5009918,0
		S44.0118904,25.1576653,44.0118904,27.4736595z"/>
	<path style="fill:#363636;" d="M30.0079231,35.3369179c0,2.3159943-3.5009918,2.3159943-3.5009918,0
		C26.5069313,33.0209274,30.0079231,33.0209274,30.0079231,35.3369179z"/>
	<path style="fill:#363636;" d="M57.4176331,34.9697609c0,2.3159943-3.5009918,2.3159943-3.5009918,0
		C53.9166412,32.6537704,57.4176331,32.6537704,57.4176331,34.9697609z"/>
	<path style="fill:#363636;" d="M65.8922424,49.6026878c0,2.3159904-3.5009918,2.3159904-3.5009918,0
		C62.3912506,47.2866936,65.8922424,47.2866936,65.8922424,49.6026878z"/>
</g>
<path id="Factory_Emissions_00000035497859952683442140000017697965616434838194_" style="fill:#363636;" d="M82.352562,74.2055283
	c-2.7060928-8.118721-1.3135834-7.0481339-6.8300476-7.0481339c0.4975357-3.7676392,3.859581-2.424324,4.7655334-6.4076118
	c0,0,0,0,0-0.0003319c0.5615005-2.4685364-0.8435059-6.1227493-3.6696625-6.9161797
	c-0.2166214-2.0449982-1.5880432-4.0166283-3.7009048-4.6897812c-0.310791-5.1312103-2.7681961-8.6938362-6.5704803-9.6660957
	c2.3874893-5.8529358-0.2478867-12.6858425-6.1536636-15.3091927c1.2401047-13.3587484-17.2096329-18.0799446-22.6355476-5.9678497
	c-4.6648521,0.1233196-8.810173,2.9699631-10.6114292,7.237936c-8.1134071,1.7747898-10.7880249,12.191946-4.3311291,17.62467
	c-0.6460476,3.0453606,1.8284798,4.399025,2.4359283,6.5894318c-1.6053104,0-3.2090893-0.3058891-3.3962212,1.1926384
	c-2.9971333,23.9787788-3.634613,24.4836388-1.7181587,24.7226677c1.8365955,0.2365036,1.4873238-0.9228516,2.9580803-12.6892433
	c7.1495705,0,6.8700752,0.0382843,7.2129669-0.0892487l1.8588867,14.8712578h-5.8327312
	c-1.8013401,0-1.8013401,2.7229919,0,2.7229919c50.7770386,0,50.7483292,0.7562332,50.7483292-1.361496
	c0-1.8241348-2.128952-1.361496-5.4140778-1.361496l2.3804626-7.7800751c4.1847534,0,4.1087646,0,4.1920166,0
	c1.542511,4.6281128,1.7091217,6.6280594,3.4506073,6.0472946C82.2046432,75.689682,82.5902252,74.9188538,82.352562,74.2055283z
	 M23.2352333,60.1554565l0.9725094-7.7800751h4.5983753l0.9743385,7.7947426
	C29.5678825,60.147316,29.7784119,60.1554565,23.2352333,60.1554565z M27.964325,49.6523895
	c0.7922115-2.9008141,6.597538-5.9282684,8.5936165-7.6288376c0.0934029,0.0914078,0.1888008,0.1821518,0.2865257,0.2722321
	c-1.5347252,3.903965,2.0971375,4.6389198,2.2884254,7.3566055c-4.7493019,0-3.2025604-0.9766579-5.6240273,18.3928375
	C31.0920124,48.7096405,32.6007996,49.6523895,27.964325,49.6523895z M42.8099899,52.3753815l0.9725075,7.7800751h-6.5431442
	l0.9725952-7.7800751H42.8099899z M35.0510216,77.6604614l1.8492889-14.7930641
	c0.2138596,0.0173798,7.0072899,0.0173988,7.2211494,0l1.8491249,14.7930641H35.0510216z M45.3627968,50.8450279
	c-0.1878853-1.5045395-1.7985001-1.1926384-3.4638214-1.1926384c0.2650108-2.7599297,4.1079712-4.0524521,6.7462387-4.8632965
	c1.6975479,1.1683731,3.6330948,1.8617516,5.6783295,2.0362625c-0.5225639,2.0589256-0.3970871,4.3377151,0.4906197,6.4335365
	c-2.8536263,1.3099747-4.2982216,3.5137634-4.2982216,6.5648346c0,3.2695961,3.4961205,4.48386,4.2461166,7.3336678
	c-5.6774597,0-4.3762932-1.0598526-6.6426964,5.7398224L45.3627968,50.8450279z M51.0972633,77.6604614h-1.6955147
	l2.5933571-7.7800751h1.4826164L51.0972633,77.6604614z M53.9449463,77.6604614l2.3804588-7.7800751h4.2103004l2.5930672,7.7800751
	H53.9449463z M68.6205521,77.6604614h-1.7137985l2.5933609-7.7800751h1.5008926L68.6205521,77.6604614z M65.017746,74.716423
	c-2.9266891-8.7809296-1.4016266-7.5590286-7.3187561-7.5590286c0.518425-4.5786552,4.7406998-2.8622208,7.5005722-5.5779495
	c2.4507294,3.3187103,6.321228,2.218895,7.2725067,5.5779495C66.3930664,67.1573944,67.9492111,65.9224701,65.017746,74.716423z
	 M73.796669,63.9344749c-2.5103683-2.8813934-6.0739746-1.564415-7.2216492-5.7607651
	c-0.1712265-0.6286316-0.7922592-1.0301895-1.372467-1.0011787c-2.5747948,0.1098251-3.2681961-3.0273819-4.9304352-1.8727226
	c-1.8328552,1.2751999,0.9880371,3.5758171,3.0319557,4.3129272c-1.4103165,1.4569511-5.2984161,1.0321236-7.2740021,4.104351
	c-1.2609482-1.6682816-2.7911377-2.7305298-2.7911377-3.8933601c0-4.1999702,3.8182259-4.0103264,4.5771027-5.066391
	c0.988678-1.3741798-1.077961-1.9343872-1.077961-5.4376755c0-3.0113907,2.6525536-5.1734238-1.3821068-5.1734238
	c-4.6866989,0-5.3940697-2.7886581-6.9949532-2.1293335c-0.8425522,0.3492165-5.4476128,1.2855453-7.7976952,4.0788422
	c-0.5520821-0.7422562-1.2784691-1.4422684-1.3149605-1.7706795c-0.1610413-1.4676437,1.565197-2.3440399,0.1585541-3.428669
	c-3.4783516-2.6817818-3.9969635-7.1872139-3.4107246-8.3168983c0.378933-0.6475086,0.1622124-1.4801617-0.4849663-1.8607559
	c-2.6892815-1.5842876-3.409565,4.7966003-0.6859818,9.2068062c-1.6428261,1.4016876-6.0190239,3.6846313-8.2707767,6.6518364
	c-0.5155754-0.8107147-1.2628384-1.8237495-1.3076496-2.2809029c-0.1029129-1.0291443,0.9416237-2.0312195-0.2692413-2.8556213
	c-5.6505241-3.8445358-3.494009-12.5591831,3.1451378-13.4471073c1.7976055-0.2407703,2.1695004-7.0747299,9.7518539-7.0747299
	c0.4017563,0,1.4987183,0.2075844,1.8840218-0.8914871c3.3804817-9.6588936,17.7622833-7.1975918,17.7622833,3.035778
	c0,1.5139351-0.6705666,2.8022671,0.7402458,3.2727776c5.6644783,1.887991,7.9466705,8.5814152,4.846344,13.511591
	c-2.3955307,3.8121758,7.1205978-0.9949226,7.1205978,10.4199715c0,0.7149849,0.5531082,1.3083115,1.2664337,1.3581734
	c3.8726349,0.2700882,1.0868835,5.0174751,3.8295441,4.7808609c1.6214828-0.1434784,2.6207047,2.3674202,2.3088226,3.7391281
	C77.227684,61.9273834,75.2091827,61.7248421,73.796669,63.9344749z"/>
</svg>
