<?xml version="1.0" encoding="utf-8"?>
<!-- Generator: Adobe Illustrator 30.0.0, SVG Export Plug-In . SVG Version: 9.03 Build 0)  -->
<svg version="1.1" id="Layer_3" xmlns="http://www.w3.org/2000/svg" xmlns:xlink="http://www.w3.org/1999/xlink" x="0px" y="0px"
	 viewBox="0 0 102.0277405 102.027771" style="enable-background:new 0 0 102.0277405 102.027771;" xml:space="preserve">
<g>
	<path style="fill:#FFFFFF;" d="M51.0140076,101.0280762c-27.578125,0-50.0141602-22.4365234-50.0141602-50.0141602
		S23.4358826,1.0002441,51.0140076,1.0002441c27.5776367,0,50.0141602,22.4360352,50.0141602,50.0136719
		S78.5916443,101.0280762,51.0140076,101.0280762z"/>
	<path style="fill:#FFFFFF;" d="M51.0138855,2.0000153c27.0695801,0,49.013855,21.9442596,49.013855,49.0138702
		s-21.9442749,49.0138855-49.013855,49.0138855C23.9442444,100.027771,2,78.0834961,2,51.0138855
		S23.9442444,2.0000153,51.0138855,2.0000153 M51.0138855,0.0000153C22.8847351,0.0000153,0,22.8847504,0,51.0138855
		s22.8847351,51.0138855,51.0138855,51.0138855s51.013855-22.8847351,51.013855-51.0138855
		S79.1430359,0.0000153,51.0138855,0.0000153L51.0138855,0.0000153z"/>
</g>
<g>
	<path style="fill:#FFFFFF;" d="M51.0140076,98.0280762c-25.9238281,0-47.0141602-21.0908203-47.0141602-47.0141602
		S25.0901794,4.0002441,51.0140076,4.0002441c25.9233398,0,47.0141602,21.090332,47.0141602,47.0136719
		S76.9373474,98.0280762,51.0140076,98.0280762z"/>
	<path style="fill:#BCBD22;" d="M51.0138855,6.0000153c24.8207397,0,45.013855,20.1931305,45.013855,45.0138702
		S75.8346252,96.027771,51.0138855,96.027771S6,75.8346252,6,51.0138855S26.1931458,6.0000153,51.0138855,6.0000153
		 M51.0138855,2.0000153C23.9442444,2.0000153,2,23.9442749,2,51.0138855s21.9442444,49.0138855,49.0138855,49.0138855
		c27.0695801,0,49.013855-21.9442749,49.013855-49.0138855S78.0834656,2.0000153,51.0138855,2.0000153L51.0138855,2.0000153z"/>
</g>
<g id="Nutrient_Particles_00000135668940895064214720000008330687583273816201_">
	<path style="fill:#363636;" d="M62.7584915,46.4710159c0,2.3159943-3.5009918,2.3159943-3.5009918,0
		S62.7584915,44.1550217,62.7584915,46.4710159z"/>
	<path style="fill:#363636;" d="M67.0332794,51.0138893c0,2.3159943-3.500988,2.3159943-3.500988,0
		C63.5322914,48.6978989,67.0332794,48.6978989,67.0332794,51.0138893z"/>
	<path style="fill:#363636;" d="M43.295105,48.2215118c0,2.3159943-3.5009918,2.3159943-3.5009918,0
		S43.295105,45.9055176,43.295105,48.2215118z"/>
	<path style="fill:#363636;" d="M48.7726097,89.1424561c0,2.3159943-3.5009918,2.3159943-3.5009918,0
		S48.7726097,86.8264618,48.7726097,89.1424561z"/>
	<path style="fill:#363636;" d="M21.6898956,45.2218666c0,2.3159943-3.5009899,2.3159943-3.5009899,0
		S21.6898956,42.9058723,21.6898956,45.2218666z"/>
	<path style="fill:#363636;" d="M76.2434464,59.2798843c0,2.3159904-3.5009918,2.3159904-3.5009918,0
		C72.7424545,56.9638901,76.2434464,56.9638901,76.2434464,59.2798843z"/>
	<path style="fill:#363636;" d="M23.4403915,72.7771912c0,2.3159943-3.5009918,2.3159943-3.5009918,0
		S23.4403915,70.4611969,23.4403915,72.7771912z"/>
	<path style="fill:#363636;" d="M30.6643581,59.2798843c0,2.3159904-3.5009918,2.3159904-3.5009918,0
		C27.1633663,56.9638901,30.6643581,56.9638901,30.6643581,59.2798843z"/>
	<path style="fill:#363636;" d="M82.8834,66.565155c0,1.5862961-2.3979492,1.5862961-2.3979492,0
		C80.4854507,64.9788513,82.8834,64.9788513,82.8834,66.565155z"/>
	<path style="fill:#363636;" d="M86.5801315,45.2218666c0,1.5862999-2.3979492,1.5862999-2.3979492,0
		S86.5801315,43.6355667,86.5801315,45.2218666z"/>
	<path style="fill:#363636;" d="M18.1889057,66.565155c0,1.5862961-2.3979454,1.5862961-2.3979454,0
		C15.7909603,64.9788513,18.1889057,64.9788513,18.1889057,66.565155z"/>
	<path style="fill:#363636;" d="M16.4869118,49.2633934c0,1.5862999-2.3979454,1.5862999-2.3979454,0
		S16.4869118,47.6770935,16.4869118,49.2633934z"/>
</g>
<g id="Fish_00000114757700308250132170000013908959231560742309_">
	<path style="fill:#363636;" d="M65.9823837,73.1917572"/>
	<path style="fill:#363636;" d="M57.5414772,61.6675339c-0.562748,2.1484299,4.7603264,2.7237167,5.5882111,10.1626968h-3.7101707
		c-0.4862938-4.3815308-3.2901459-8.4203568-7.7215729-10.995018c-1.5583534-0.9029999-2.9252586,1.4495659-1.368145,2.3546982
		c3.5679054,2.0725784,5.8624382,5.2321777,6.3501053,8.6403198h-3.3891563
		c-0.7155571-5.409584-7.525486-11.7321396-9.0215378-9.0042915c-1.3731575,2.5062981,5.0916672,2.4829369,6.2684212,9.0042915
		h-3.3777733c-0.5271416-3.2488022-2.9212685-6.2069702-6.629776-8.09552
		c-1.6055298-0.8158989-2.8407326,1.6093216-1.2358513,2.4264984c2.7372856,1.3938217,4.5520897,3.4478607,5.0862083,5.6690216
		h-3.3703346c-0.7958908-3.8403702-6.6813889-8.5936737-7.884491-5.985466
		c-1.0843964,2.3470459,3.6406479,1.9030457,5.0655174,5.985466h-4.6526833l-7.426405-7.4267349
		c-1.2729607-1.274559-3.199398,0.6518784-1.9252415,1.9252396l6.763607,6.764267L23.989027,80.054718
		c-0.8601532,0.8596191-0.2392693,2.3241196,0.9626198,2.3241196c0.8060436,0,0.4840279,0.0797195,8.3893604-7.8256149h4.8500824
		c-0.5668602,1.6238022-2.121315,3.1252747-4.4006844,4.1785583c-1.320118,0.6099319-0.8821564,2.5976791,0.5720558,2.5976791
		c1.1185799,0,5.8028183-2.7006378,6.6476021-6.7762375h3.3703766c-0.5341187,2.2211609-2.3489227,4.2752075-5.0862083,5.6690292
		c-1.2707939,0.6470642-0.8071251,2.5750732,0.6189232,2.5750732c1.173172,0,6.4372406-3.2553177,7.2467041-8.2441025h3.3777733
		c-0.50811,2.8158569-2.5671005,5.4228439-5.7289391,7.155838c-1.2319374,0.6755753-0.7491989,2.5557938,0.6558151,2.5557938
		c1.2520409,0,7.0498734-3.8423386,7.8262405-9.7116318h3.3891563c-0.4876671,3.4081497-2.7821999,6.5677414-6.3501053,8.6403198
		c-1.1988792,0.6968918-0.701313,2.5391769,0.6854019,2.5391769c1.4095039,0,7.6649284-4.5176163,8.4043159-11.1794968h3.7101707
		c-0.3849144,3.4586716-2.2176247,6.6468582-5.0703354,8.7154388c-1.0029907,0.7265854-0.5874519,2.3124237,0.6428528,2.4547501
		c10.4441948,1.2073669,19.5259743-5.9031754,19.5259743-12.5316849
		C78.2281799,62.0751724,58.4545898,58.1814957,57.5414772,61.6675339z M62.2771339,83.0542679
		c4.8692818-5.6951981,4.8692818-14.0298767,0-19.7250824c6.3142052,0.5810318,13.228054,4.7612534,13.228054,9.8625412
		C75.505188,78.2930222,68.5913391,82.4732361,62.2771339,83.0542679z"/>
	<path style="fill:#363636;" d="M72.1944351,73.7702637c0.519104-0.5191574,1.9001312-1.6016159,0.7878647-2.7131882
		c-1.0577621-1.0577621-2.0273895,0.1021576-2.7130203,0.7878647c-0.5237274-0.5237808-1.6010132-1.8998795-2.7130203-0.7878647
		c-1.0579987,1.0573425,0.1049652,2.03022,0.7878571,2.7131882c-2.2973022,2.2975464-0.5421906,4.3929443,1.9251633,1.9253235
		C72.723999,78.1505661,74.5157776,76.0918503,72.1944351,73.7702637z"/>
</g>
<path id="Wave_00000132807766279277584950000004282476237283606941_" style="fill:#363636;" d="M75.2562256,50.0353127
	c-2.1220779-2.0472374-5.1357498,5.2644997-12.5965042,5.2644997c-7.5828323,0-10.4554253-7.335968-12.6001587-5.264164
	c-7.1642799,6.9021683-14.2655258,6.9243889-21.4080086-0.0003357c-2.6363354-2.5465698-7.548933,10.4127655-19.6029682,2.822422
	c0.0480728,1.1129494,0.145216,2.2125168,0.2782583,3.3013649c5.3404903,2.7650986,10.853055,3.0228882,18.3780441-3.3226776
	c8.1340122,6.8579788,15.1689014,6.8594551,23.3016682,0c8.1354866,6.8580666,15.1689873,6.859417,23.3033333,0
	c7.5376282,6.3517494,13.1164856,6.0515785,18.3912582,3.3208084c0.1330032-1.088726,0.2300186-2.1881676,0.2780533-3.3009911
	C87.6056442,56.2390022,82.2733307,56.7956963,75.2562256,50.0353127z"/>
<g id="Agriculture_00000137124629812326603260000003407706452228509841_">
	<path style="fill:#363636;" d="M57.900135,14.9322329c-2.05159-0.2537003-4.6488838,0.2298756-6.1903076,1.7713003
		c-0.808548-4.015214-4.2221375-5.4725065-7.8238678-5.0304489c-2.344532,0.2844505-2.2126694,9.2796383,5.8757744,9.1962509
		v2.3606815c-2.1907845-1.6487293-5.2630424-1.3413868-5.6341248-1.2958488
		c-2.3228302,0.2818203-2.20578,9.0974617,5.6341248,9.1948814v2.1885815
		c-1.7077217-1.1450768-6.3194084-2.0808926-6.579792,0.0652771c-0.5494003,4.5372238,1.7540817,7.828907,6.579792,8.0009537
		c0,2.4658585-0.452919,4.8647919,1.361496,4.8647919c0.6694489,0,1.2231789-0.4841385,1.3372307-1.1208
		c7.5353928-0.2332687,7.80056-8.9030457,5.4396744-9.1894798c-0.3585739-0.0440445-3.2443161-0.3334351-5.4154091,1.1384163
		v-2.4526291c4.7825165-0.1594772,7.1609001-3.3918724,6.6027298-8.0015373
		c-0.2614594-2.1550045-4.8941154-1.2073689-6.6027298-0.0489445v-2.4522572
		C60.0159798,23.8697853,60.2473907,15.2170153,57.900135,14.9322329z M45.3900528,14.3645
		c2.5026703,0.1771479,3.5850601,1.2597399,3.7623978,3.7623978C46.6497803,17.949749,45.5673904,16.867157,45.3900528,14.3645z
		 M45.6317062,24.6255836c2.5029106,0.177166,3.5851059,1.2598305,3.7623978,3.7627316
		C46.8911934,28.2111492,45.8089981,27.1284847,45.6317062,24.6255836z M45.8733559,34.887001
		c2.5026741,0.1771469,3.5850601,1.2597389,3.7623978,3.7623978C47.1330833,38.4722519,46.0506973,37.3896599,45.8733559,34.887001z
		 M56.3960381,28.1267185c-0.1771469,2.5026703-1.2597389,3.5850582-3.7623978,3.7623978
		C52.8107872,29.3864441,53.8933792,28.3040581,56.3960381,28.1267185z M56.3960381,17.6236496
		c-0.1771202,2.5022774-1.2601318,3.5854168-3.7623978,3.7627296
		C52.8108063,18.8834686,53.8931427,17.8010044,56.3960381,17.6236496z M56.3960381,38.6297874
		c-0.1771469,2.5026703-1.2597389,3.5850601-3.7623978,3.7623978
		C52.8107872,39.8895149,53.8933792,38.8071289,56.3960381,38.6297874z"/>
	<path style="fill:#363636;" d="M77.1788101,38.6390953c-0.3591537-0.0443344-3.244278-0.3337669-5.4154129,1.1383743v-2.4525871
		c4.7825165-0.1594772,7.1609039-3.3918686,6.6027298-8.0015354c-0.2781754-2.2927971-5.3901672-1.1674652-7.1312332,0.363102
		c-0.8053436-4.0502224-4.2427597-5.4883804-7.8286095-5.0512257c-2.3228531,0.2818222-2.2058487,9.097126,5.6341209,9.1945496
		v2.1885414c-1.7075882-1.1449165-6.3194313-2.0806427-6.5797882,0.0653152
		c-0.5494003,4.5372238,1.7540817,7.8289108,6.5797882,8.0009537c0,2.4658623-0.452919,4.8647919,1.361496,4.8647919
		c0.6694489,0,1.2231827-0.4841347,1.3372345-1.1208C79.2745285,47.5953064,79.5396957,38.9255295,77.1788101,38.6390953z
		 M65.1520309,37.5877228c2.5026703,0.1771507,3.5850601,1.2597427,3.7623978,3.7623978
		C66.4117584,41.1729736,65.3293686,40.0903816,65.1520309,37.5877228z M75.6747131,30.8274403
		c-0.1771469,2.5026722-1.2597427,3.5850582-3.7623978,3.7623997
		C72.0894623,32.0871696,73.1720581,31.0047798,75.6747131,30.8274403z M64.9103775,27.3266392
		c2.5026703,0.1771488,3.5850601,1.2597408,3.7623978,3.7623978C66.170105,30.91189,65.0877151,29.829298,64.9103775,27.3266392z
		 M71.9123154,45.092907c0.1771469-2.5026703,1.2597427-3.5850563,3.7623978-3.7623978
		C75.4975662,43.8331833,74.4149704,44.9155693,71.9123154,45.092907z"/>
	<path style="fill:#363636;" d="M38.62146,24.6352234c-3.5989304-0.4443111-7.0243549,1.0066338-7.8285656,5.0511837
		c-1.7442303-1.5335865-6.8532925-2.6542988-7.131279-0.36306c-0.5570202,4.6001568,1.810915,7.8417377,6.6027279,8.0015354
		v2.4525032c-2.1710911-1.4721413-5.0565434-1.1829147-5.4154072-1.1382904
		c-2.3184242,0.2812843-2.185957,8.9534187,5.4396725,9.1894798c0.1140537,0.6366653,0.6677837,1.1208,1.3372307,1.1208
		c1.9264755,0,1.361496-2.776371,1.361496-4.8647919c4.8387833-0.1725006,7.1273079-3.4793129,6.579792-8.0009537
		c-0.2607498-2.1491814-4.8766975-1.2076111-6.579792-0.0654411v-2.1884155
		C40.8502693,33.7320671,40.9341927,24.9158173,38.62146,24.6352234z M36.8757133,37.5877228
		c-0.1771507,2.5026741-1.2597427,3.5850601-3.7623978,3.7623978
		C33.2904625,38.8474503,34.3730545,37.7650642,36.8757133,37.5877228z M37.117363,27.3266392
		c-0.1771469,2.5026722-1.2597389,3.5850582-3.7623978,3.7623978C33.5321159,28.5863667,34.6147079,27.5039787,37.117363,27.3266392
		z M26.3530312,30.8274403c2.5026722,0.1771488,3.5850582,1.2597408,3.7623978,3.7623997
		C27.6127586,34.4126892,26.5303707,33.3300972,26.3530312,30.8274403z M26.3530312,41.3305092
		c2.5026722,0.1771507,3.5850582,1.2597427,3.7623978,3.7623978C27.6127586,44.91576,26.5303707,43.833168,26.3530312,41.3305092z"
		/>
</g>
</svg>
