<?xml version="1.0" encoding="utf-8"?>
<!-- Generator: Adobe Illustrator 30.0.0, SVG Export Plug-In . SVG Version: 9.03 Build 0)  -->
<svg version="1.1" id="Layer_2" xmlns="http://www.w3.org/2000/svg" xmlns:xlink="http://www.w3.org/1999/xlink" x="0px" y="0px"
	 viewBox="0 0 102.0277405 102.027771" style="enable-background:new 0 0 102.0277405 102.027771;" xml:space="preserve">
<g>
	<path style="fill:#FFFFFF;" d="M51.0140076,101.0280762c-27.578125,0-50.0141602-22.4365234-50.0141602-50.0141602
		c0-27.578125,22.4360352-50.0141602,50.0141602-50.0141602c27.5776367,0,50.0141602,22.4360352,50.0141602,50.0141602
		C101.0281677,78.5915527,78.5916443,101.0280762,51.0140076,101.0280762z"/>
	<path style="fill:#FFFFFF;" d="M51.0138855,1.9999847c27.0695801,0,49.013855,21.9442596,49.013855,49.0138702
		c0,27.0696411-21.9442749,49.0138855-49.013855,49.0138855C23.9442444,100.0277405,2,78.0834961,2,51.013855
		C2,23.9442444,23.9442444,1.9999847,51.0138855,1.9999847 M51.0138855-0.0000153C22.8847351-0.0000153,0,22.8847198,0,51.013855
		s22.8847351,51.0138855,51.0138855,51.0138855s51.013855-22.8847351,51.013855-51.0138855
		S79.1430359-0.0000153,51.0138855-0.0000153L51.0138855-0.0000153z"/>
</g>
<g>
	<path style="fill:#FFFFFF;" d="M51.0140076,98.0280762c-25.9238281,0-47.0141602-21.0908203-47.0141602-47.0141602
		c0-25.9238281,21.090332-47.0141602,47.0141602-47.0141602c25.9233398,0,47.0141602,21.090332,47.0141602,47.0141602
		C98.0281677,76.9372559,76.9373474,98.0280762,51.0140076,98.0280762z"/>
	<path style="fill:#2CA02C;" d="M51.0138855,5.9999847c24.8207397,0,45.013855,20.1931305,45.013855,45.0138702
		s-20.1931152,45.0138855-45.013855,45.0138855S6,75.8345947,6,51.013855S26.1931458,5.9999847,51.0138855,5.9999847
		 M51.0138855,1.9999847C23.9442444,1.9999847,2,23.9442444,2,51.013855c0,27.0696411,21.9442444,49.0138855,49.0138855,49.0138855
		c27.0695801,0,49.013855-21.9442444,49.013855-49.0138855C100.0277405,23.9442444,78.0834656,1.9999847,51.0138855,1.9999847
		L51.0138855,1.9999847z"/>
</g>
<g id="Life_00000036950560283141082600000001225354279687783598_">
	<path style="fill:#363636;" d="M51.0138741,9.0373993c-2.2803917,0-9.9583168,15.3393288-1.361496,18.0584869v6.3315315
		c0,1.801342,2.7229919,1.801342,2.7229919,0v-6.2803841C60.9478302,24.6197853,53.3529129,9.0373993,51.0138741,9.0373993z
		 M49.2950516,23.6150284c-2.0534744-2.7565784-0.1983528-7.6543741,1.7188225-10.5667238
		C56.5914497,21.5211086,51.844944,27.038002,49.2950516,23.6150284z"/>
	<path style="fill:#363636;" d="M46.4234772,27.2221966c-2.4334717-1.549654-5.6133423-1.9069138-8.4557152-1.563303
		c-2.3544884,0.2846107,1.7417145,6.4542656,4.3025436,8.0850487C47.5938683,37.1342773,51.9466476,30.739502,46.4234772,27.2221966
		z M46.1737213,31.5415668c-0.7061386,1.1085796-3.3832664,0.0866928-5.2529068-3.2405357
		C45.0632324,28.617033,46.6444168,30.8023815,46.1737213,31.5415668z"/>
	<path style="fill:#363636;" d="M64.0599823,25.6588936c-12.0145378-1.452425-13.6515198,9.0051231-7.3252296,9.0051231
		C61.6859779,34.6640167,66.5415344,25.9588642,64.0599823,25.6588936z M58.2948151,31.4471245
		c-3.5141182,2.2379799-3.907608-2.6336975,2.8121185-3.1460514C60.4719696,29.431015,59.5572586,30.6431808,58.2948151,31.4471245z
		"/>
</g>
<path id="Bee_00000031919258104156367900000007994778925990813368_" style="fill:#363636;" d="M58.2949791,75.1440735
	c7.6568947-3.8431015,3.6235771-6.3005295,2.2593422-4.9363022c-1.4785805,1.4782104-3.2217941,2.5255966-5.0748634,3.1729355
	c0.7341843-1.1139297,0.8298302-2.5192184,0.1417656-3.7506409c1.3423233-1.3423233-0.4843445-3.3664551-2.0247116-1.8264771
	c-1.5868759-0.7537689-3.5783997-0.7537689-5.1652756,0c-1.5474281-1.5470352-3.3592873,0.4919052-2.0247116,1.8264771
	c-0.6880341,1.231369-0.5924568,2.6366577,0.1417656,3.7506409c-1.8530693-0.6473389-3.596283-1.694725-5.0748672-3.1729355
	c-1.3132324-1.3132324-5.3218193,0.9674149,1.987442,4.8091202c-7.77285,5.2036362-6.7644463,14.6120758,0.9323311,10.7035446
	c0.9248352,3.5449219,3.6843643,6.5125809,6.6206779,8.7034302c2.8872604-2.1542511,5.5813484-5.0393677,6.5624237-8.5055695
	C65.0536728,89.3289871,65.4968643,80.2001572,58.2949791,75.1440735z M53.2609596,71.753624
	c-0.7863808,1.5856171-4.5971298,1.2235336-4.5971298-0.3694992C48.6638298,69.1974487,54.2322311,69.7944946,53.2609596,71.753624z
	 M44.1074181,82.7540894c-6.956562,4.4922409-2.0682869-5.7018967,4.8342934-7.0248718
	C48.3145981,79.0016327,46.7979012,81.0165939,44.1074181,82.7540894z M51.0138741,90.9446716
	c-0.5761261-0.5221558-1.3743362-1.318367-2.1214409-2.2942047h4.242878
	C52.3882103,89.6263046,51.5900002,90.4225159,51.0138741,90.9446716z M54.7157745,85.927475h-7.403801
	c-0.226902-0.5799484-0.3908577-1.184288-0.4617004-1.8050766c1.8646622-1.4757538,3.0339813-2.8510895,3.9294701-5.0425034
	c0.8394241,2.0542145,2.0167351,3.6308975,4.3488274,5.3654251C55.0440598,84.9529724,54.90308,85.4487457,54.7157745,85.927475z
	 M60.7171974,83.8287277c-0.7073708,0.6988831-6.9068069-1.8627243-8.0991783-8.0995102
	C58.9507866,76.941658,61.3321037,83.2132111,60.7171974,83.8287277z"/>
<g id="Whale_00000134953025004183419350000004297222104466034564_">
	<path style="fill:#363636;" d="M88.7515335,42.1554909c1.513649-2.6212616,2.5834961-3.513546,1.7311172-4.7991447
		c-0.33638-0.5098953-1.1128616-1.6829224-7.1445312-0.5654068c-6.6729126-4.6627884-13.1382217-4.6828423-16.39048-3.0111809
		c-3.7054634,1.9044609,5.1606445,12.6948128,6.0004272,13.8419952c-0.5085678,1.1959648-1.2232208,3.2411995-0.8808517,4.6592026
		c0.2737045,1.136364,2.4468613,6.3645821,4.8110275,2.5289574c0.6154633,1.213028,2.4092331,3.8335075,3.7967148,3.541935
		c0.9592896-0.1997833,1.3568649-1.4695168,1.8277206-2.7991104c0.5065689,0.7733994,0.8276291,1.5020561,0.5136795,2.3716507
		c-1.7033463,4.7142601-11.7002029-2.6825485-14.3901138,3.4668961c-0.6408691,1.4647369,0.867218,2.1197395,6.2822952,4.8426857
		c0.5956573,0.2994919,1.2225571,0.3895721,1.8361588,0.3573303c-0.0571747,1.2328568,0.5065765,4.553833,1.6805954,9.8911285
		c0.8310699,3.7780457,5.9488983-2.7989731,6.4119339-7.5683441C85.1954269,65.1861725,97.4834518,58.1244164,88.7515335,42.1554909
		z M75.0714111,52.5525246c-0.4530182-0.843895-0.6887131-1.5681686,0.5886383-4.320118
		c0.0020294,0.0689583,0.1031723,2.3712082,0.1791992,3.0747948L75.0714111,52.5525246z M86.4706268,61.3753319
		c-1.6343002,2.3432083-4.0435181,4.1632652-4.3437576,7.2764931c-0.1529083,1.5712357-0.9041214,3.1238632-1.6579971,4.3284683
		c-0.5777054-2.8532944-1.0437241-5.50914-1.0191269-6.1506653c0.3636093-1.4356766,1.8449707-2.2906265,0.7452316-3.441967
		c-1.2394409-1.2966843-2.8744888,1.0144768-4.0625534,0.4135017c-0.8303299-0.41716-2.5042725-1.3349075-3.805275-2.0558739
		c3.4478912-1.052948,6.7694016,1.7404747,10.3873978,0.140934c4.1822128-1.843853,3.9301758-7.1065483,0.5309601-9.4784966
		c0.2249298-2.1715202,0.0724716-6.7565346-2.0845871-6.2521744c-2.444664,0.5679054,0.5858612,3.38591-1.216568,8.4707947
		c-1.6697464-2.1669083-1.4117889-4.4157295-1.556282-6.2912712c-0.2282486-2.9235687,2.2023621-4.8358383,0.2566071-5.7657509
		c-1.8496323-0.8822021-2.6397476,2.325264-2.9094238,4.3341217c-1.1051407-2.3795013-6.0515594-6.5624199-6.7520142-10.9843826
		c7.0059738-2.0253677,13.2543869,3.8637505,14.2990417,3.6553688c1.4984436-0.2974968,3.0906219-0.4869614,4.1443176-0.5162125
		c-0.7033539,1.1384583-1.3907471,2.3603477-1.429306,2.4284897C85.0836182,43.1160965,93.2077179,51.7187233,86.4706268,61.3753319
		z"/>
	<path style="fill:#363636;" d="M73.7703323,37.0099068c-2.3160477,0-2.3160477,3.5009689,0,3.5009689
		C76.0863113,40.5108757,76.0863113,37.0099068,73.7703323,37.0099068z"/>
</g>
<path id="DNA_00000098222014663581548680000003798825969912909494_" style="fill:#363636;" d="M25.3764095,65.7001038
	c1.1681671-2.479805,2.3373718-5.0488586,1.4349995-8.1004677c-0.5175838-3.1006775-2.7405281-4.9643021-4.7783279-6.5867729
	c2.0377998-1.622467,4.2607441-3.4860916,4.7783279-6.5867691c0.9023323-3.0510292-0.2666245-5.6196251-1.4347076-8.0992203
	c11.7449608-2.7772217,6.8987885-8.0656872,5.1961079-5.6576824c-1.4494228,2.0551472-3.8264122,2.5376682-6.3131695,3.1239071
	c-0.8752823-2.3372478-1.0742645-4.6603279,1.063961-7.6591263c1.0452538-1.4674969-1.172121-3.0481071-2.2177505-1.5808792
	c-2.7785454,3.8977661-2.4601517,7.169838-1.4739304,9.9553642c-7.6368856,2.5518036-9.4684677,11.0523872-3.8122978,16.5041161
	c-3.0407295,2.9300613-3.8653202,6.739212-3.038106,9.4772949c0.0173626,0.0964394,0.0234995,0.1831398,0.136116,0.3955917
	c1.3779097,4.0989075,4.0349226,5.7372513,6.7139978,6.6327667c-1.9189091,5.4187393,1.1465549,11.8599167,3.3735352,10.2745056
	c2.2884941-1.6312637-3.0979958-3.2774811-0.7457314-9.5588531c2.5003662,0.5902176,4.8673172,1.073967,6.3140392,3.124649
	C32.2811546,73.7848969,37.0088921,68.4507751,25.3764095,65.7001038z M22.6938438,37.0195045
	c0.828022,1.7643356,1.7704525,3.6191483,1.6891575,5.452179l-6.4865551-1.4846077
	C18.9844227,38.6353264,20.6833439,37.6511841,22.6938438,37.0195045z M17.2891159,43.6416359l6.4817352,1.4835281
	c-0.7253284,1.6676064-2.3365746,2.884304-3.8777809,4.1108322C18.3540745,47.8150024,17.2498112,46.209816,17.2891159,43.6416359z
	 M19.8928623,52.7895241c1.5907116,1.2661133,3.2455559,2.5123978,3.9393578,4.2570877l-6.5370369,1.5290642
	C17.1968346,55.8954391,18.3158474,54.2452545,19.8928623,52.7895241z M17.9726486,61.2133293l6.4193687-1.5015602
	c0.0240536,1.7804756-0.8876743,3.5691338-1.6982555,5.295578C20.7316246,64.3907089,19.063158,63.4447479,17.9726486,61.2133293z"
	/>
<path id="Earth_00000023239600088682287050000001172804638019991209_" style="fill:#363636;" d="M51.0138741,37.5916862
	c-17.7539177,0-17.7539177,26.8443489,0,26.8443489S68.7677917,37.5916862,51.0138741,37.5916862z M56.5666847,53.4246941
	c0.1125526-1.5918655,0.1148148-3.1978188,0-4.8216629C63.346447,49.9461327,63.346447,52.0815926,56.5666847,53.4246941z
	 M48.6029167,56.5666733c1.5919456,0.1125526,3.1979828,0.1148148,4.8219147,0
	C52.0819969,63.346508,49.9457474,63.346508,48.6029167,56.5666733z M48.2214088,53.8062859
	c-0.1636276-1.8668861-0.1636276-3.7179642,0-5.5848465c1.8303223-0.1604156,3.6804123-0.1669159,5.5849304,0
	c0.1636238,1.8668823,0.1636238,3.7179604,0,5.5848465C51.976017,53.9666977,50.125927,53.9732018,48.2214088,53.8062859z
	 M45.4610634,48.6030312c-0.1125565,1.5918617-0.1148148,3.1978149,0,4.8216629
	C38.6813011,52.0815926,38.6813011,49.9461327,45.4610634,48.6030312z M53.4248314,45.4610519
	c-1.5919495-0.1125565-3.1979828-0.1148186-4.8219147,0C49.9457474,38.6812134,52.0819969,38.6812134,53.4248314,45.4610519z
	 M60.9654121,47.1107788c-1.3308296-0.5909195-2.9572067-1.0332146-4.7252655-1.3231888
	c-0.2899742-1.7680588-0.7322693-3.3943939-1.3231888-4.7252274C57.6786766,42.1495476,59.8782272,44.3490601,60.9654121,47.1107788
	z M47.1107903,41.0623627c-0.5909195,1.3308334-1.0332146,2.9572067-1.3231888,4.7252274
	c-1.7680168,0.2899742-3.3943939,0.7322693-4.7252274,1.3231888C42.1495628,44.3490601,44.3491135,42.1495476,47.1107903,41.0623627
	z M41.0623741,54.9169464c1.3308334,0.5909195,2.9572105,1.0332146,4.7252274,1.3231888
	c0.2899742,1.7680168,0.7322693,3.3943939,1.3231888,4.7252235C44.3491135,59.8781738,42.1495628,57.6786652,41.0623741,54.9169464z
	 M54.9169579,60.9653587c0.5909195-1.3308296,1.0332146-2.9571648,1.3231888-4.7252235
	c1.7680588-0.2899742,3.3944359-0.7322693,4.7252655-1.3231888C59.8782272,57.6786652,57.6786766,59.8781738,54.9169579,60.9653587z
	"/>
</svg>
