<?xml version="1.0" encoding="utf-8"?>
<!-- Generator: Adobe Illustrator 30.0.0, SVG Export Plug-In . SVG Version: 9.03 Build 0)  -->
<svg version="1.1" id="Layer_3" xmlns="http://www.w3.org/2000/svg" xmlns:xlink="http://www.w3.org/1999/xlink" x="0px" y="0px"
	 viewBox="0 0 102.0277405 102.027771" style="enable-background:new 0 0 102.0277405 102.027771;" xml:space="preserve">
<g>
	<path style="fill:#FFFFFF;" d="M50.9952583,100.8696518c-27.578125,0-50.0141602-22.4365234-50.0141602-50.0136719
		c0-27.578125,22.4360352-50.0141602,50.0141602-50.0141602c27.5771523,0,50.0136757,22.4360352,50.0136757,50.0141602
		C101.008934,78.4331284,78.5724106,100.8696518,50.9952583,100.8696518z"/>
	<path style="fill:#FFFFFF;" d="M50.9948311,1.8416821c27.0696449,0,49.0139198,21.9442596,49.0139198,49.0138702
		c0,27.0696411-21.9442749,49.0138855-49.0139198,49.0138855c-27.0696106,0-49.013855-21.9442444-49.013855-49.0138855
		C1.9809762,23.7859421,23.9252205,1.8416821,50.9948311,1.8416821 M50.9948311-0.158318
		c-28.1291504,0-51.013855,22.8847351-51.013855,51.0138702s22.8847046,51.0138855,51.013855,51.0138855
		s51.0139198-22.8847351,51.0139198-51.0138855S79.1239853-0.158318,50.9948311-0.158318L50.9948311-0.158318z"/>
</g>
<g>
	<path style="fill:#FFFFFF;" d="M50.9952583,97.8696518c-25.9238281,0-47.0141602-21.0898438-47.0141602-47.0136719
		S25.0714302,3.8418193,50.9952583,3.8418193S98.008934,24.9321518,98.008934,50.8559799
		S76.9190903,97.8696518,50.9952583,97.8696518z"/>
	<path style="fill:#D62728;" d="M50.9948311,5.841682c24.8207436,0,45.0139198,20.1931305,45.0139198,45.0138702
		S75.8155746,95.8694382,50.9948311,95.8694382S5.9809761,75.6762924,5.9809761,50.8555527S26.1740913,5.841682,50.9948311,5.841682
		 M50.9948311,1.8416821c-27.0696106,0-49.013855,21.9442596-49.013855,49.0138702
		c0,27.0696411,21.9442444,49.0138855,49.013855,49.0138855c27.0696449,0,49.0139198-21.9442444,49.0139198-49.0138855
		C100.0087509,23.7859421,78.064476,1.8416821,50.9948311,1.8416821L50.9948311,1.8416821z"/>
</g>
<g id="House_00000012436786900652526000000015105215040211175853_">
	<path style="fill:#363636;" d="M25.8749638,48.9055557V40.153717l6.3388042-6.1367073l6.1410294,6.1247444v8.3901482
		c1.133934-0.5301094,1.9491806-1.2276649,2.7229919-1.9827461c0-7.6172256,0.1377296-7.4005852-0.4002037-7.9364281
		c-7.6471443-7.6267757-8.0985336-8.7377338-9.3965225-7.4825821c-10.2366009,9.9097748-8.1290932,5.6275291-8.1290932,16.6460114
		C23.8804531,48.2890434,24.9802418,48.9336433,25.8749638,48.9055557z"/>
</g>
<path id="X_00000039133353219049170550000014097074486658015648_" style="fill:#363636;" d="M34.0398712,42.2995071
	c0.5191002-0.5191574,1.9001274-1.6016197,0.7878647-2.7131882c-1.0577621-1.0577621-2.0273857,0.1021538-2.7130203,0.7878609
	c-0.5237236-0.523777-1.6010094-1.8998756-2.7130241-0.7878609c-1.0579987,1.0573387,0.104969,2.03022,0.7878647,2.7131882
	c-2.2973061,2.2975464-0.5421982,4.3929405,1.9251595,1.9253235C34.573822,46.6841965,36.3569107,44.616787,34.0398712,42.2995071z"
	/>
<g id="Plant_00000112598200744711981710000014713929533505594036_">
	<path style="fill:#363636;" d="M72.9260025,36.8678513c-0.7531433-7.8121662-6.5142899-9.2785416-8.9316254-1.3777008
		c-7.3449211,3.7523804-3.3201714,12.0935249-0.8633995,11.0618706c4.2824974-1.7919655,6.1044655-5.6474953,3.4347801-10.1597862
		c0.4023209-1.3211937,1.1117401-3.5285568,2.0564117-3.3252144c2.2500076,0.4656677,1.7072754,9.624218,1.6593246,13.7025986
		l1.3674774,0.8756561l1.3555145-0.8672638c0.0362396-3.0333481-0.3918381-9.3986778,2.5408401-7.308033
		c1.6261597,1.1586456,0.8509369,4.5963821,2.847641,4.5963821C81.7843857,44.0663605,78.2928314,34.3531303,72.9260025,36.8678513z
		 M63.1077118,43.4690437c-1.0835419-2.2619705-0.6776428-3.7395096,1.4093628-5.1305428
		C65.6003418,40.6007996,65.194725,42.0777016,63.1077118,43.4690437z"/>
</g>
<path id="Earth_Thermometer_00000155869492997597664190000002451646508715782030_" style="fill:#363636;" d="M50.9948425,14.4840546
	c-20.055151,0-36.3715057,16.3163548-36.3715057,36.3715057c0,19.9442978,16.1381073,36.1840744,36.0408974,36.3631134
	c19.9442711,0.2997284,36.7021141-16.049881,36.7021141-36.3631134
	C87.3663483,30.8004093,71.0499954,14.4840546,50.9948425,14.4840546z M18.6137581,59.9795189h11.1276855
	c0.4540539,2.9194374,1.1211739,5.6968651,1.9711533,8.2849846h-9.5027637
	C20.6569176,65.7064209,19.4442101,62.92239,18.6137581,59.9795189z M24.0495663,70.9874954h8.6542377
	c1.962635,4.9038467,4.6183586,8.9732132,7.7343292,11.8108063C33.8388138,80.6115417,28.1350117,76.4416275,24.0495663,70.9874954z
	 M61.1199379,82.9446335c3.1875191-2.8433609,5.9039879-6.9664917,7.9013557-11.9571381h8.9188309
	C73.7653046,76.5609131,67.90345,80.7993927,61.1199379,82.9446335z M79.7798538,68.2645035h-9.7673492
	c0.8499756-2.5881195,1.5170975-5.3655472,1.9711533-8.2849846h11.3922729
	C82.5454788,62.92239,81.3327713,65.7064209,79.7798538,68.2645035z M72.3341675,57.2565231
	c0.1888046-1.7644005,0.3004074-3.5720177,0.3315277-5.4129524l3.2392883-2.0722885l4.2589951,2.7229958l3.1090317-1.9877739
	c-0.011261-1.0515366-0.0697632-2.0916901-0.1797409-3.1170921l-2.9292908,1.8726387l-4.2596588-2.7229919l-4.2556763,2.7226601
	l-4.2526855-2.7229919l-4.2553406,2.7229919l-4.6661835-2.9872475l-0.0887489,0.138607v3.0376511l4.7549324,3.0438805
	l4.2546768-2.7229919l2.5534286,1.6349335c-0.0189056,1.9962921-0.1347427,3.9514046-0.3431549,5.8499718H58.385685v2.7229958
	h10.8515053c-0.4712143,2.9428711-1.1593628,5.726902-2.0405426,8.2849846h-4.2129211
	c0.1045685,0.9808426,0.0895691,1.7615662-0.0272141,2.7229919h3.1961594
	c-3.2047195,7.5396729-8.1622925,12.628418-13.7963295,13.4011536v-4.2604065
	c9.7150841-1.2423782,12.7774544-13.8765411,4.6678429-19.4274254V26.3486214c0-3.3329296-2.6964111-6.0293427-6.0293427-6.0293427
	c-6.9618378,0-6.0293427,7.5508442-6.0293427,11.7143211l2.7229958-2.7229919c0-2.7536278-0.2270622-3.9221268,0.7960892-5.1142559
	c1.2509232-1.4569874,3.4832039-1.5520649,4.8483391-0.1854763c1.2725067,1.2711544,0.9682693,2.3465786,0.9682693,7.2216492
	c-2.5358505-2.5358505-2.3931732-2.4098377-2.5571671-2.5182362c-0.0000839-0.000042-0.0001678-0.0000839-0.0002518-0.0001259
	c-0.6962776-0.4601402-1.4157791-0.0614243-1.2621078-0.1241074c-0.0830193,0.0338612-0.1619186,0.0752869-0.2357941,0.1241074
	c-0.0000839,0.000042-0.0001259,0.0000839-0.0002098,0.0001259c-0.1604195,0.1060448-0.0174103-0.0175323-4.8772964,4.8423519
	c-0.8601532,0.8596153-0.2392693,2.3241196,0.9626198,2.3241196c0.7487068,0,0.8457222-0.2819786,3.3023605-2.7386169v30.5433044
	c-2.6577187,0.6174698-4.6402168,2.9951019-4.6402168,5.8407059c0,7.9405746,12.0034256,7.9405746,12.0034256,0
	c0-2.8456039-1.9824944-5.2232361-4.640213-5.8407059V33.1381531l1.9448509,1.9448547v27.1524849
	c3.2516594,1.8828773,4.6681786,4.3337364,4.6681786,7.2921181c0,10.547554-15.9490547,10.547554-15.9490547,0
	c0-2.9588928,1.4169807-5.4095078,4.6681786-7.2921181V36.8677711c-0.8793488,0.508152-1.8728371,0.4909592-2.7229958-0.0041962
	v23.8372421c-8.116127,5.5553474-5.0413094,18.1858025,4.6678467,19.4274254v4.2958908
	c-5.7436485-0.6463852-10.8060074-5.778923-14.0609169-13.4366379h3.4607468
	c-0.1164589-0.9587631-0.1320534-1.7396164-0.0272141-2.7229919h-4.4775085
	c-0.8811836-2.5580826-1.5693283-5.3421135-2.0405426-8.2849846h11.1160927v-2.7229958H32.1195335
	c-0.2229557-2.0310669-0.3440304-4.125042-0.3489742-6.2670898c3.7605038,2.7525787,7.6006222,2.9324265,11.8334446-1.1981659
	v-3.8048172c-4.3502159,4.244915-6.5520973,6.5267105-12.2085972,1.0285988
	c-5.6593895,5.4852562-7.7688026,3.3013573-12.3047829-1.1263657c-0.1764202,1.1377106-0.2908897,2.2952385-0.3447781,3.4685173
	c3.1770439,3.1013489,6.4234581,4.6895218,10.3181725,2.8162308c0.0388088,1.7270927,0.1493721,3.4239349,0.3269119,5.0830917
	h-11.426342C13.925971,36.3790398,30.0107613,17.2070484,50.9948425,17.2070484
	c21.0125504,0,37.0633545,19.2005138,33.0302582,40.0494766H72.3341675z M54.2735634,69.5261536
	c0,4.3367767-6.5574379,4.3367767-6.5574379,0C47.7161255,65.1893539,54.2735634,65.1893539,54.2735634,69.5261536z"/>
</svg>
