<?xml version="1.0" encoding="utf-8"?>
<!-- Generator: Adobe Illustrator 30.0.0, SVG Export Plug-In . SVG Version: 9.03 Build 0)  -->
<svg version="1.1" id="Layer_2" xmlns="http://www.w3.org/2000/svg" xmlns:xlink="http://www.w3.org/1999/xlink" x="0px" y="0px"
	 viewBox="0 0 102.0277405 102.027771" style="enable-background:new 0 0 102.0277405 102.027771;" xml:space="preserve">
<g>
	<path style="fill:#FFFFFF;" d="M51.0142822,101.1920319c-27.578125,0-50.0141602-22.4365234-50.0141602-50.0136681
		c0-27.578125,22.4360352-50.0141602,50.0141602-50.0141602c27.5771484,0,50.0136719,22.4360352,50.0136719,50.0141602
		C101.0279541,78.7555084,78.5914307,101.1920319,51.0142822,101.1920319z"/>
	<path style="fill:#FFFFFF;" d="M51.0138855,2.1640506c27.0696106,0,49.0138855,21.9442596,49.0138855,49.0138855
		s-21.9442749,49.0138817-49.0138855,49.0138817S2.0000005,78.2475433,2.0000005,51.1779366
		S23.9442749,2.1640506,51.0138855,2.1640506 M51.0138855,0.1640505c-28.1291504,0-51.0138855,22.8847351-51.0138855,51.0138855
		s22.8847351,51.0138817,51.0138855,51.0138817c28.1291199,0,51.0138855-22.8847351,51.0138855-51.0138817
		S79.1430054,0.1640505,51.0138855,0.1640505L51.0138855,0.1640505z"/>
</g>
<g>
	<path style="fill:#FFFFFF;" d="M51.0142822,98.1920319c-25.9238281,0-47.0141602-21.0898438-47.0141602-47.0136681
		S25.0904541,4.1642032,51.0142822,4.1642032s47.0136719,21.090332,47.0136719,47.0141602
		S76.9381104,98.1920319,51.0142822,98.1920319z"/>
	<path style="fill:#FF7F0E;" d="M51.0138855,6.1640506c24.8207092,0,45.0138855,20.1931458,45.0138855,45.0138855
		S75.8345947,96.1918182,51.0138855,96.1918182c-24.8207397,0-45.0138855-20.1931458-45.0138855-45.0138817
		S26.1931458,6.1640506,51.0138855,6.1640506 M51.0138855,2.1640506c-27.0696106,0-49.0138855,21.9442596-49.0138855,49.0138855
		s21.9442749,49.0138817,49.0138855,49.0138817s49.0138855-21.9442749,49.0138855-49.0138817
		S78.0834961,2.1640506,51.0138855,2.1640506L51.0138855,2.1640506z"/>
</g>
<g id="Lab_00000044885012145730361210000005261540054460924564_">
	<path style="fill:#363636;" d="M33.1292801,59.0105286c-3.8280067-8.9321327-3.9794521-8.9320831-3.9794521-10.3574791
		c0-8.8516998,0.4710464-10.2850151-1.3614979-10.2850151c-9.3377361,0-10.6945286-0.4700661-10.6945286,1.361496
		c0,9.7224655,0.1337051,9.6840591-0.4221439,10.9797249c-6.6708221,15.5654564-5.3264856,13.7219963,12.8830299,13.7219963
		C32.3454132,64.4312515,34.2288589,61.5755005,33.1292801,59.0105286z M26.4268341,41.0910263v1.009819h-6.6100407v-1.009819
		H26.4268341z M16.6886101,61.7082596c-0.837204,0-1.4014378-0.8559074-1.0716476-1.6254196
		c4.8009186-11.2024384,4.199831-8.6242294,4.199831-15.2589989h6.6100407c0,3.8984222-0.1659966,5.0720978,0.6418571,6.9577255
		C32.3457146,64.0952759,34.0519714,61.7082596,16.6886101,61.7082596z"/>
	<path style="fill:#363636;" d="M24.3852005,53.8546028c0,2.4695511-3.73312,2.4695511-3.73312,0
		S24.3852005,51.3850517,24.3852005,53.8546028z"/>
	<path style="fill:#363636;" d="M26.8548985,57.9105797c0,2.4695511-3.73312,2.4695511-3.73312,0
		S26.8548985,55.4410286,26.8548985,57.9105797z"/>
	<path style="fill:#363636;" d="M21.5853596,57.9105797c0,1.2347755-1.86656,1.2347755-1.86656,0
		S21.5853596,56.6758041,21.5853596,57.9105797z"/>
	<path style="fill:#363636;" d="M25.9216194,31.2324715c0,1.2347755-1.8665619,1.2347755-1.8665619,0
		S25.9216194,29.9976959,25.9216194,31.2324715z"/>
	<path style="fill:#363636;" d="M24.0550575,34.6294823c0,2.4695511-3.73312,2.4695511-3.73312,0
		C20.3219376,32.1599274,24.0550575,32.1599274,24.0550575,34.6294823z"/>
</g>
<path id="Chemical_00000033341498985455645730000006330916317835335600_" style="fill:#363636;" d="M57.577179,76.8040161
	c1.6688461-3.7114639-0.0890656-7.8070679-3.4560509-9.406456c-1.6278687-0.7716827-2.7952766,1.6867218-1.168045,2.4597397
	c5.6505318,2.6841202,0.945118,10.9133148-4.1273689,7.8698196c-1.2067223-0.6435852-2.223732-2.1412811-2.223732-3.8518143
	c0-4.1535339,4.2455482-3.6016846,3.1870193-5.8322296c-1.3274231-2.7957916-7.9585609,2.7815247-5.2699432,8.7609406
	c-7.6935883,0.7723618-7.6163559,11.2831955-4.3785362,10.2275543c1.5458946-0.5037994,0.6538239-2.015274,0.6538239-3.0949478
	c0-3.4309387,3.7310181-5.5482178,6.6666718-3.8530579c3.9239731,2.2658463,2.3145561,8.29953-2.2205315,8.29953
	c-1.3637123,0-2.7607307-1.0848694-3.3665161,0.4769897c-0.9909477,2.5549011,5.9511452,3.7216263,9.1741486-0.7366791
	c3.2153778,4.4477615,10.1670532,3.2966232,9.1741486,0.7366791c-0.6045761-1.5599136-2.0189857-0.4769897-3.3665123-0.4769897
	c-4.5307426,0-6.1440506-6.0301971-2.2220726-8.2986145c2.9321785-1.6952133,6.6682091,0.4174423,6.6682091,3.8521423
	c0,1.0748291-0.8919716,2.5911789,0.6538239,3.0949478C65.2111893,88.0944595,65.269104,77.57621,57.577179,76.8040161z"/>
<path id="Radioactive_00000100375873659526532480000003564199741733742767_" style="fill:#363636;" d="M62.0507812,16.0236645
	c-1.2784004-2.2138166-5.1938858-6.476469-6.5246124-4.1662598l-4.5170212,7.8239117
	c-4.5398064-7.7994127-4.8306694-9.2175655-6.4065323-8.299571c-6.0214691,3.5052671-8.0751915,12.4160128-4.966671,12.4160128
	l9.0150146-0.0318699l-4.5073814,7.8069592c-1.334137,2.3108463,4.3473511,3.5672817,6.8703041,3.5672817
	c2.5560417,0,8.2031174-1.2587318,6.8703079-3.5672817l-4.5122032-7.8153095h9.0244865
	C65.0644455,23.7575378,63.311882,18.2084503,62.0507812,16.0236645z M41.0808716,21.0697784
	c0.3367844-2.517395,1.6308746-4.9029884,3.7620659-6.5691557l3.8079376,6.5422316L41.0808716,21.0697784z M47.2288818,31.6745605
	l3.7849998-6.5555267l3.7849998,6.5555267C52.4036331,32.6511421,49.6241341,32.6511421,47.2288818,31.6745605z
	 M53.3719063,21.034544l3.7849998-6.5558596c1.9987106,1.5513754,3.4151306,3.8648844,3.7849998,6.5558596H53.3719063z"/>
<g id="Plastic_Bottle_00000052803261010609270620000012702401579984363182_">
	<path style="fill:#363636;" d="M71.1978836,56.7075615c-1.2348099,0-1.2348099,1.8665314,0,1.8665314
		C72.4326782,58.5740929,72.4326782,56.7075615,71.1978836,56.7075615z"/>
	<path style="fill:#363636;" d="M87.3545151,61.5109406c-1.2347946,0-1.2347946,1.8665733,0,1.8665733
		C88.589325,63.3775139,88.589325,61.5109406,87.3545151,61.5109406z"/>
	<path style="fill:#363636;" d="M88.7024689,58.8150406c-1.2347717,0-1.2347717,1.8665733,0,1.8665733
		C89.9372635,60.6816139,89.9372635,58.8150406,88.7024689,58.8150406z"/>
	<path style="fill:#363636;" d="M87.924202,43.1461105c0.3365631-1.3736877,2.1348267-5.8323174-4.4446793-5.8323174
		c-2.4297256,0-2.6886368,2.2536125-3.1118164,3.9809494c-3.6551743,2.8122292-2.7290268,1.33078-4.5231705,8.6535721
		c0.490448,0.3772659,1.556015,0.9753571,2.484375,1.3027458l0.4768219-1.9462624l4.4586868,1.0923386
		c0.7806015-0.4655876,1.4170837-1.1561432,2.7212906-0.9735909c0.8198624,0.1147385,1.3412399,0.5788918,1.2724991,0.5273895
		c0.2218704,0.1662369,0.6686935,0.4561729,1.219101,0.7457733C89.6513138,45.9048386,89.7584152,47.098774,87.924202,43.1461105z
		 M83.4794388,40.0367889l2.2669449,0.5553932l-0.3702087,1.511116l-2.266983-0.5553513L83.4794388,40.0367889z
		 M79.453743,46.6599579l0.3702469-1.5112l1.5793839-1.2151184l4.3826065,1.0736008l0.8388443,1.8077393l-0.3702469,1.511116
		L79.453743,46.6599579z"/>
	<path style="fill:#363636;" d="M85.602417,55.3395424c-0.3603592,0.2006836-0.7700424,0.4094696-1.2154541,0.6094475
		l-0.5610428,2.2900467c-5.6068878-1.3736305-7.0772171-1.5408936-9.3405533-2.7430611
		c-2.377327,9.7030754-3.1903992,8.3893127,7.3259354,10.9658928c3.585434,0.8778915,3.7905197-4.0284615,5.3441544-10.3697815
		C86.5790787,55.8502274,86.0509033,55.5893364,85.602417,55.3395424z M82.4592743,63.81707l-6.8008804-1.6662216
		l0.7186432-2.9331512l6.8008728,1.6661797L82.4592743,63.81707z"/>
	<path style="fill:#363636;" d="M91.3089981,52.9303284c-2.7785416,0-4.7698593-2.1333847-5.6507797-2.1699677
		c-1.3991928-0.0578918-4.8270569,4.7100677-10.638649,0.2706566c-1.5685883-1.1979294-2.8686371,1.8993111-6.5315933,1.8993111
		c-2.5189972,0-2.0292816,5.6567345,5.7049255,0.8253441c4.0190964,2.5114784,7.3893585,2.5097847,11.4095154,0
		C93.3597946,58.5982285,93.8145294,52.9303284,91.3089981,52.9303284z"/>
</g>
<g id="Earth__x21__00000132782372414354206520000003654958301271597741_">
	<path style="fill:#363636;" d="M37.594696,51.1779366c0,17.7544289,26.8383713,17.7544289,26.8383713,0
		C64.4330673,33.6446953,37.594696,33.1031914,37.594696,51.1779366z M40.4142532,52.5394325h2.5893288
		c0.1528053,2.567173,0.753788,5.1640167,1.9391594,7.4344673C42.5061073,58.2868195,40.8076859,55.6156807,40.4142532,52.5394325z
		 M43.003582,49.8164368h-2.5893288c0.3934326-3.0762482,2.0918961-5.7474289,4.5285301-7.4345055
		C43.7543831,44.6592484,43.1585846,47.2523689,43.003582,49.8164368z M56.2902222,52.5394325
		c-0.9687691,13.9061012-11.5207634,11.1831551-10.552681-2.7229958
		C46.7063103,35.9102631,57.2583122,38.6332092,56.2902222,52.5394325z M61.6135139,49.8164368h-2.5893288
		c-0.1549988-2.5639954-0.7503967-5.1574821-1.9392014-7.4345055
		C59.5216179,44.0690079,61.2200813,46.7401886,61.6135139,49.8164368z M57.0850258,59.9738998
		c1.1853027-2.2703247,1.7863617-4.8674965,1.9391594-7.4344673h2.5893288
		C61.2200813,55.6156807,59.5216599,58.2868195,57.0850258,59.9738998z"/>
	<path style="fill:#363636;" d="M51.0138817,53.854599c-3.1800232,0-3.1800232,4.8071632,0,4.8071632
		C54.1939621,58.6617622,54.1939621,53.854599,51.0138817,53.854599z"/>
	<rect x="49.6523857" y="42.8145027" style="fill:#363636;" width="2.7229934" height="9.7249289"/>
</g>
</svg>
