<?xml version="1.0" encoding="utf-8"?>
<!-- Generator: Adobe Illustrator 30.0.0, SVG Export Plug-In . SVG Version: 9.03 Build 0)  -->
<svg version="1.1" id="Layer_2" xmlns="http://www.w3.org/2000/svg" xmlns:xlink="http://www.w3.org/1999/xlink" x="0px" y="0px"
	 viewBox="0 0 102.0277405 102.027771" style="enable-background:new 0 0 102.0277405 102.027771;" xml:space="preserve">
<g>
	<path style="fill:#FFFFFF;" d="M51.0140076,101.0280762c-27.578125,0-50.0141602-22.4365234-50.0141602-50.0141602
		c0-27.578125,22.4360352-50.0141602,50.0141602-50.0141602c27.5776367,0,50.0141602,22.4360352,50.0141602,50.0141602
		C101.0281677,78.5915527,78.5916443,101.0280762,51.0140076,101.0280762z"/>
	<path style="fill:#FFFFFF;" d="M51.0138855,2c27.0695801,0,49.013855,21.9442596,49.013855,49.0138855
		s-21.9442749,49.0138855-49.013855,49.0138855C23.9442444,100.027771,2,78.0834961,2,51.0138855S23.9442444,2,51.0138855,2
		 M51.0138855,0C22.8847351,0,0,22.8847351,0,51.0138855s22.8847351,51.0138855,51.0138855,51.0138855
		s51.013855-22.8847351,51.013855-51.0138855S79.1430359,0,51.0138855,0L51.0138855,0z"/>
</g>
<g>
	<path style="fill:#FFFFFF;" d="M51.0140076,98.0280762c-25.9238281,0-47.0141602-21.0908203-47.0141602-47.0141602
		c0-25.9238281,21.090332-47.0141602,47.0141602-47.0141602c25.9233398,0,47.0141602,21.090332,47.0141602,47.0141602
		C98.0281677,76.9372559,76.9373474,98.0280762,51.0140076,98.0280762z"/>
	<path style="fill:#17BECF;" d="M51.0138855,6c24.8207397,0,45.013855,20.1931458,45.013855,45.0138855
		S75.8346252,96.027771,51.0138855,96.027771S6,75.8346252,6,51.0138855S26.1931458,6,51.0138855,6 M51.0138855,2
		C23.9442444,2,2,23.9442596,2,51.0138855s21.9442444,49.0138855,49.0138855,49.0138855
		c27.0695801,0,49.013855-21.9442749,49.013855-49.0138855S78.0834656,2,51.0138855,2L51.0138855,2z"/>
</g>
<g id="Waves_00000064340116319453894130000013816348997962133136_">
	<path style="fill:#363636;" d="M82.7690506,49.3695145c-2.1219177,0-6.4573364-1.5318451-5.1248856-3.4891701
		c1.157959-1.70187,2.6099472,0.7661743,5.1248856,0.7661743c2.5476761,0,3.9532166-2.4877663,5.1248932-0.7661743
		C89.2263718,47.8376389,84.8543167,49.3695145,82.7690506,49.3695145z"/>
	<path style="fill:#363636;" d="M75.3486328,58.3777962c0.4224701-0.6205864,1.2670975-0.7817993,1.8890076-0.3613167l0,0
		c2.1809616,1.4695435,4.2940674,1.480793,6.4687729,0.0019951c1.4898834-1.0118484,3.0211258,1.2375069,1.5323486,2.250988
		C80.0419846,63.8107605,73.93013,60.4604149,75.3486328,58.3777962z"/>
	<path style="fill:#363636;" d="M82.3219833,54.5512428c-5.1694717,2.7882042-10.4539948-0.3969765-9.1239624-2.3497086
		c0.4224777-0.6209183,1.2670975-0.7817993,1.8890152-0.3613167l0,0c2.8573074,1.9252663,4.8696594,1.0904999,7.2349472-0.5195351
		c2.4244843,1.6503296,4.4211121,2.4333496,7.2326126,0.5215302c1.4898376-1.0123558,3.0209579,1.2368279,1.5323486,2.250988
		C88.0606995,56.1554108,85.2189636,56.1131744,82.3219833,54.5512428z"/>
	<path style="fill:#363636;" d="M87.8939438,65.1181335c-1.1536789-1.6938171-2.6449509,0.7661743-5.1238937,0.7661743
		c-1.5980911,0-3.1642838-1.0778885-4.0003967-1.6470261c-1.5927277,1.0841599-3.1160583,1.9694138-4.9598923,1.5188446
		c-0.1261063,0.902626-0.3047256,1.7935333-0.537117,2.6711426c1.5538864,0.3534241,3.2774887,0.2377014,5.4970093-0.9594193
		C83.8367386,70.1997986,89.2917557,67.170372,87.8939438,65.1181335z"/>
</g>
<path id="Plant_00000142854263159837802790000018048343928832686255_" style="fill:#363636;" d="M31.0717335,31.3512878
	c-0.3520489-0.0428791-3.1323814-0.3251667-5.2871017,1.0496674v-1.9677048
	c4.7934303-0.2224503,7.0142422-3.5404072,6.4744244-7.9985027c-0.2529297-2.0846977-9.1978416-2.9349022-9.1973763,6.8211117
	c-2.1749115-1.499691-5.0895729-1.2080536-5.4510136-1.164053c-2.3151722,0.2808895-2.1930408,8.962389,5.4514294,9.1901455
	l0.0001259,2.0780602c-1.7352962-1.1969872-6.3776207-2.1303635-6.638876,0.0229759
	c-0.5604973,4.6288643,1.8385639,7.8594627,6.6392498,8.002491c0.0000763,0.9341393,0.0705433,5.1306152-0.5305882,5.9565468
	c-1.9683838,1.7334213-3.8927937,0.8602219-4.7292156,4.6634865c-0.8153591,3.698288-3.8214998,1.0988274-5.8362207,6.566494
	c-0.3280754,0.8918152,0.3351011,1.8325043,1.2777328,1.8325043c1.9850798,0,0.322072-2.019989,4.1436567-3.7105026
	c0.1728001,2.2381668,1.188076,2.0097351-1.9578161,5.1677322c-1.1353779,1.1346664,0.366622,3.4234009,2.1868372,1.6712875
	c5.3496532-5.1313324,0.8740005-5.6347847,3.0622044-11.6874428c0.1250458,5.0082588,5.3283615,5.0990028,1.4663677,9.304493
	c-2.3519821,2.5606918-3.0944881,8.3152313-0.6282291,8.3152313c2.7492561,0-0.0697727-3.4529572,2.4057617-6.2219696
	c0.2139397,0.4964371,0.4870853,0.9117279,0.7958832,1.3374023c2.7022781,3.7249756-0.137949,8.5145874,2.6408901,8.5907898
	c0.7014408,0.0359726,1.3771954-0.5386353,1.3987255-1.322937c0.2882652-10.3476639-3.0448151-7.0639267-2.5112572-12.6772766
	c0.011137-0.1170883,0.0022449-0.2305984-0.0153732-0.3416214c0.2809029-4.422924-4.7630463-5.5169411-2.3035908-9.0038757
	c1.5420589,3.0906143,3.1596909,3.2740517,4.0945454,5.6940384c0.0602055-1.427063,0.2334251-2.7909279,0.5245628-4.0878143
	c-2.6947212-2.8383293-2.74333-3.5541039-2.7604294-6.7914467c7.480135-0.3482742,7.5904064-8.9060402,5.2846909-9.1857834
	c-0.3520489-0.0434608-3.1323814-0.3255806-5.2871017,1.0495453v-1.9675407
	C33.1024742,40.1979294,33.4521904,31.6400967,31.0717335,31.3512878z M29.5676384,34.0427017
	c-0.1771469,2.5026741-1.2597389,3.5850601-3.7623978,3.7623978C25.9823895,35.3024292,27.0649815,34.2200432,29.5676384,34.0427017
	z M19.1147614,30.7832222c2.5029106,0.1771641,3.5851059,1.2598267,3.7623978,3.7627296
	C20.3742485,34.3687859,19.2920532,33.2861214,19.1147614,30.7832222z M19.1147614,40.8870811
	c2.5026703,0.1771507,3.5850582,1.2597427,3.7623978,3.7623978C20.3744869,44.472332,19.2921009,43.38974,19.1147614,40.8870811z
	 M29.5676384,23.9388428c-0.1771202,2.5022774-1.2601318,3.5854187-3.7623978,3.7627296
	C25.9824066,25.1986618,27.064743,24.1161976,29.5676384,23.9388428z M29.5676384,44.1462326
	c-0.1771641,2.5029106-1.2595005,3.5853729-3.7623978,3.7627296C25.9824066,45.4060516,27.064743,44.3235893,29.5676384,44.1462326z
	"/>
<path id="Glass_of_Water_00000097489404340588952530000005240065469121705894_" style="fill:#363636;" d="M59.0302811,48.5624542
	c-0.5798073-0.6477127-0.0049286-0.4533882-15.0183449-0.4533882c-0.8110428,0-1.4429817,0.7056808-1.3531876,1.5117378
	c2.4302025,21.8711319,1.9678001,22.217392,3.6872749,22.217392c9.5791206,0,10.5077171,0.4160767,10.6888809-1.2112503
	C59.4805717,48.6166229,59.631134,49.2336769,59.0302811,48.5624542z M56.4947586,50.832058l-0.4754524,4.2789421H46.0084343
	l-0.4754524-4.2789421H56.4947586z M54.46315,69.1152039h-6.8985596l-1.2535515-11.281208h9.4056625L54.46315,69.1152039z"/>
<g id="Little_Drops_00000066477279150968041280000000652734815185958581_">
	<path style="fill:#363636;" d="M43.9474525,23.280365c-2.8455429,0-5.758297-3.3097038-2.3061714-7.3379889
		c1.4674454-1.7122965,0.741581-3.0204887,2.3061714-3.0204887c1.5585175,0,0.8461876,1.3174839,2.3064995,3.0204887
		C49.677433,19.937233,46.8096619,23.280365,43.9474525,23.280365z M43.9474525,17.4338398
		c-3.0658798,3.658865,1.1839943,3.8148842,1.1839943,1.939867C45.1314468,18.7159863,44.5407333,18.1418743,43.9474525,17.4338398z
		"/>
	<path style="fill:#363636;" d="M38.8571281,36.5582809c-2.8455429,0-5.758625-3.3093719-2.3064995-7.337656
		c1.468277-1.7122955,0.7415352-3.0208206,2.3064995-3.0208206c1.5585213,0,0.8461914,1.3178177,2.3064995,3.0208206
		C44.6317406,33.2675629,41.6688728,36.5582809,38.8571281,36.5582809z M38.8571281,30.7117558
		c-3.0658379,3.6588192,1.1836662,3.8148594,1.1836662,1.939867C40.0407944,31.9939022,39.4504128,31.4197903,38.8571281,30.7117558
		z"/>
	<path style="fill:#363636;" d="M59.2250671,28.9227982c-2.8455429,0-5.758297-3.3097038-2.3061676-7.3379898
		c1.4674416-1.7122955,0.7415771-3.0204887,2.3061676-3.0204887c1.5581436,0,0.8466873,1.3174858,2.3061676,3.0204887
		C64.978447,25.6073608,62.0675735,28.9227982,59.2250671,28.9227982z M59.2250671,23.076273
		c-3.0658379,3.6588173,1.1836624,3.8148594,1.1836624,1.939867C60.4087296,24.3584194,59.8183517,23.7843075,59.2250671,23.076273z
		"/>
</g>
<path style="fill:#363636;" d="M51.0138702,78.8331528c-14.8375816,0-19.3850822-17.9510803-15.2284203-17.9510803
	c0.7518806,0,1.361496,0.6096153,1.361496,1.361496c0,7.6461182,6.2208061,13.8665924,13.8669243,13.8665924
	C52.8152122,76.1101608,52.8152122,78.8331528,51.0138702,78.8331528z"/>
<path style="fill:#363636;" d="M69.5862045,51.2183037c-1.1120529,0.1511803-1.9676361,0.1551514-3.1806641-0.0417595
	c4.349472,6.9083328,4.4373627,13.8041306,1.7081451,19.512558C59.4430084,88.816185,32.070919,82.6215057,32.070919,62.5274353
	c0-13.7317963,14.3537064-20.5529022,18.9429512-33.017292c1.4188766,3.8537216,3.7939758,7.1898651,6.3806877,10.3533249
	c0.0783615-1.2461128,0.3631439-2.3680763,0.7794685-3.3973846c-8.6201668-11.2073956-4.0538063-15.9087124-7.1601562-15.9087124
	c-3.6713333,0,3.2835655,3.8980446-11.1858101,20.7797756c-5.5042725,6.4211464-10.480135,12.4882889-10.480135,21.1902885
	c0,11.9078293,9.6894627,21.665947,21.6659451,21.665947C66.9635239,84.1933823,78.4444504,67.1015167,69.5862045,51.2183037z"/>
<path style="fill:#363636;" d="M68.1323013,49.9668312c-6.5128441,0-14.3118553-7.5252762-5.0534286-18.3270226
	c1.8986511-2.2150917,3.6919327-4.3075294,3.6919327-7.153841c0-1.8013401,2.7229919-1.8013401,2.7229919,0
	c0,2.8463116,1.7932816,4.9387493,3.691925,7.153841C82.399353,42.3892899,74.6221008,49.9668312,68.1323013,49.9668312z
	 M68.1323013,29.4177361c-2.3144836,4.1102524-6.6781845,6.705204-6.6781845,11.1479187
	c0,8.8332977,13.3563614,8.8332977,13.3563614,0C74.8104782,36.1366348,70.435173,33.5073662,68.1323013,29.4177361z"/>
<path style="fill:#363636;" d="M68.1323013,45.3109512c-4.8094788,0-6.1413002-5.8900719-3.4602509-5.8900719
	c2.2419205,0,0.3803329,3.1670761,3.4602509,3.1670761C69.9336395,42.5879555,69.9336395,45.3109512,68.1323013,45.3109512z"/>
</svg>
