<?xml version="1.0" encoding="utf-8"?>
<!-- Generator: Adobe Illustrator 30.0.0, SVG Export Plug-In . SVG Version: 9.03 Build 0)  -->
<svg version="1.1" id="Layer_3" xmlns="http://www.w3.org/2000/svg" xmlns:xlink="http://www.w3.org/1999/xlink" x="0px" y="0px"
	 viewBox="0 0 102.0277405 102.027771" style="enable-background:new 0 0 102.0277405 102.027771;" xml:space="preserve">
<g>
	<path style="fill:#FFFFFF;" d="M51.0140076,101.0280762c-27.578125,0-50.0141602-22.4365234-50.0141602-50.0141602
		S23.4358826,1.0002441,51.0140076,1.0002441c27.5776367,0,50.0141602,22.4360352,50.0141602,50.0136719
		S78.5916443,101.0280762,51.0140076,101.0280762z"/>
	<path style="fill:#FFFFFF;" d="M51.0138855,2c27.0695801,0,49.013855,21.9442596,49.013855,49.0138855
		s-21.9442749,49.0138855-49.013855,49.0138855C23.9442444,100.027771,2,78.0834961,2,51.0138855S23.9442444,2,51.0138855,2
		 M51.0138855,0C22.8847351,0,0,22.8847351,0,51.0138855s22.8847351,51.0138855,51.0138855,51.0138855
		s51.013855-22.8847351,51.013855-51.0138855S79.1430359,0,51.0138855,0L51.0138855,0z"/>
</g>
<g>
	<path style="fill:#FFFFFF;" d="M51.0140076,98.0280762c-25.9238281,0-47.0141602-21.0908203-47.0141602-47.0141602
		S25.0901794,4.0002441,51.0140076,4.0002441c25.9233398,0,47.0141602,21.090332,47.0141602,47.0136719
		S76.9373474,98.0280762,51.0140076,98.0280762z"/>
	<path style="fill:#8C564B;" d="M51.0138855,6c24.8207397,0,45.013855,20.1931458,45.013855,45.0138855
		S75.8346252,96.027771,51.0138855,96.027771S6,75.8346252,6,51.0138855S26.1931458,6,51.0138855,6 M51.0138855,2
		C23.9442444,2,2,23.9442596,2,51.0138855s21.9442444,49.0138855,49.0138855,49.0138855
		c27.0695801,0,49.013855-21.9442749,49.013855-49.0138855S78.0834656,2,51.0138855,2L51.0138855,2z"/>
</g>
<path id="Leaf_00000057107063074505198690000007469858141101898634_" style="fill:#363636;" d="M59.1620827,72.3192596
	l-1.6731186-1.5909348c-1.3040771-1.2418976-3.1812401,0.7323837-1.876049,1.9731064l1.7514,1.66539
	c-0.6903076,2.0492325,0.2399063,4.9355087,2.5371819,7.2837296c2.4726639,2.5275955,8.7717133,4.0303116,9.4393997,4.0303116
	C73.478508,85.6808624,66.7630539,68.6928711,59.1620827,72.3192596z M60.0588875,76.9290237
	c1.4663429,1.3943176,2.8002243,3.2879486,4.0494194,1.9719391c1.2401581-1.3029556-0.6322212-2.4796066-2.3980331-4.158699
	c3.5179977,0.8370667,4.8692169,4.2205429,5.8070984,7.7130203C64.1822205,81.4804688,61.1312485,80.2340927,60.0588875,76.9290237z
	"/>
<g id="Stump_00000152960055102759561200000010240216818295945089_">
	<path style="fill:#363636;" d="M44.9861946,63.2347794c-2.3032188-0.0962181-0.7103653,3.1348114-2.5787315,8.2716904
		c-2.3051872,6.3386002-6.7445869,7.5464783-4.9247894,9.366272C41.0684547,84.4540405,49.8126297,63.3266068,44.9861946,63.2347794
		z"/>
	<path style="fill:#363636;" d="M73.6042175,68.9160995c-1.9390335,0-4.5200577-1.3902893-4.7147522-2.9640656
		c-0.3800583-4.0811234-0.0897064-12.787796-0.0897064-12.7004585c0-1.2636871-0.4594193-2.4594002-1.2928619-3.5448837
		c-0.0743332-0.1263123-0.1651993-0.2389107-0.2731476-0.333477c-7.4304161-8.6667213-32.7351494-6.1145668-32.7963715,3.8463669
		c-0.0105896,1.7228584-0.1483078,6.5897827-0.3401642,9.58815c-0.7286568,3.8878326-5.2889309,6.3516846-7.0351772,6.3516846
		c-2.628603,0-1.8161221,6.0931244,5.6106472,0.3929367c-2.0714474,4.7571716-5.8142605,3.2669296-5.0754871,5.6334152
		c0.5790768,1.8524094,5.9212627,1.6118851,8.7493458-8.2693634c0.3705788-1.2963104,0.5801964-5.3755608,0.6936264-8.7575722
		c0.5961952,0.5086899,1.2839661,0.9820633,2.0521774,1.4146385c0.1033745,2.4405365,0.0813942,7.4102859-0.9395638,9.9874802
		c-1.5622749,3.9448853-5.007885,8.188591-9.1827888,8.7759323c-1.6650276,0.2341461-1.4939384,2.7100372,0.1874714,2.7100372
		c3.4783878,0,12.9294567-4.7694702,12.6926937-20.2211037c1.8437195,0.6682816,3.9540215,1.1494675,6.244442,1.3943214
		c0.0143433,8.2494659-2.2420197,9.4949341-0.0736237,10.1173248c2.6701431,0.7628937,2.7962379-7.6308365,2.7968674-9.9427757
		c2.2525063,0.0526123,4.3580589-0.1152191,6.3011589-0.4542198l0.0142937,5.4203491
		c0.0040169,1.5111847,1.7230759,1.3568878,1.3648224,1.3578415c1.8021317-0.0047836,1.3571434-1.7551346,1.3422585-7.394207
		c0.5595894-0.1591759,1.0978661-0.3355522,1.6165276-0.5256844l0.0108452,1.6711655
		c0.0093918,1.5112877,1.7298241,1.3501358,1.3701401,1.3525238c1.7017288-0.0112877,1.3829346-1.9022675,1.331871-4.2639427
		c0.6657104-0.376564,1.2717896-0.7832527,1.8086548-1.2177353c-0.0761795,7.9263649-0.3322296,16.4147758,7.3140106,18.2137947
		c0.738205,0.1728745,1.4664001-0.2867813,1.6373901-1.0134735c0.5554276-2.3611069-3.0855865-0.7833328-4.9534988-4.771759
		C75.8756485,73.5953751,75.7835693,68.9160995,73.6042175,68.9160995z M60.1859055,50.3498764
		c-0.601181-0.2691154-1.2787323-0.4929008-1.9979553-0.6768417l2.4127007-1.3781166
		c1.0689049,0.397007,2.0016098,0.8545914,2.7818298,1.3531456L60.1859055,50.3498764z M37.1589165,53.2515755
		c0-4.2228203,10.0761147-7.7295151,19.7113724-5.9621582l-3.0122604,1.7206116
		c-12.9701843-0.9406738-9.6776581,3.6571846-7.8846169,3.2277374c4.1184044-0.9810219,11.7633934-0.6952057,13.8629379,1.0138092
		c-2.8571663,2.3239517-14.9189262,1.9370689-16.5613327-0.1209908c-0.1511307-1.7182693-2.7176743-1.6039124-2.7176743,0.1209908
		c0,5.9999809,23.8295288,5.7289581,22.0317497-0.6413155l3.1141777-0.6837845
		c0.4419479,0.8248978,0.3725128,1.3997154,0.3727036,1.3315392C66.0526199,61.7154579,37.1589165,61.7090492,37.1589165,53.2515755
		z"/>
	<path style="fill:#363636;" d="M45.6815681,74.5183182c-1.4765663,4.4322662-4.02425,5.0352325-2.3666649,6.4322052
		c0.5746269,0.4848404,1.4338493,0.4116364,1.9185944-0.1628723C51.5047493,73.3505325,46.6649208,71.5850449,45.6815681,74.5183182
		z"/>
	<path style="fill:#363636;" d="M52.3494453,74.7659531c1.996376,0,2.4948959-6.5195465,2.6525269-8.5096893
		c0.0895309-1.1096649-0.0136032-2.030632-1.1913109-2.128334c-1.1956673-0.1020966-1.4344673,0.8134232-1.5230408,1.912941
		C51.7936859,72.274086,49.7318764,74.7659531,52.3494453,74.7659531z"/>
</g>
<g id="Crops_00000073001094297320441750000002796561607538214019_">
	<path style="fill:#363636;" d="M23.0180988,40.8422127c2.2063599,1.7276192,8.46068-5.9391251,1.6792679-11.2542858
		C22.6707287,28.00103,16.1879444,35.4888458,23.0180988,40.8422127z M23.8577328,32.5548973
		c1.6448326,1.894268,1.6440639,3.4254532,0.0003338,5.3206749C22.2150784,35.9760361,22.2115993,34.4517097,23.8577328,32.5548973z
		"/>
	<path style="fill:#363636;" d="M31.0434837,49.9209633c-0.3818817-0.0468712-3.6254902-0.3734093-5.8242531,1.443058v-2.50914
		c8.2823067,0.1476898,8.0933189-8.9342499,5.9452457-9.1950035c-2.7935181-0.3416862-5.9897194,0.5217323-7.3065758,3.4142113
		c-1.3111229-2.8798828-4.5232925-3.7537651-7.3062458-3.4142113c-2.3533468,0.2855186-2.195363,9.3403625,5.944582,9.1950035
		v2.50914c-2.1988449-1.8164673-5.4426632-1.4896355-5.8239212-1.443058
		c-2.3287611,0.2825356-2.213645,9.2337036,5.8239212,9.1974983c0,3.7453804-0.4503994,5.7756424,1.361496,5.7756424
		c1.9434738,0,1.3614979-2.6930199,1.3614979-5.7756424C33.2305183,59.1543045,33.3859291,50.2053108,31.0434837,49.9209633z
		 M29.5390568,52.6123772c-0.1771183,2.5022545-1.2601528,3.5854836-3.7623978,3.7627296
		C25.9537621,53.8730888,27.0370331,52.7894173,29.5390568,52.6123772z M29.6600494,42.3512917
		c-0.1771336,2.5024681-1.2599392,3.5851364-3.7623978,3.7623978
		C26.0747623,43.6115685,27.1579227,42.5283394,29.6600494,42.3512917z M18.0557499,42.3512917
		c2.5026703,0.1771507,3.5850582,1.2597427,3.7623978,3.7623978C19.3158073,45.9365654,18.2328739,44.8536339,18.0557499,42.3512917
		z M18.1764107,52.6123772c2.5022774,0.1771202,3.5854187,1.2601318,3.7627296,3.7623978
		C19.436367,56.1976204,18.3535652,55.1151505,18.1764107,52.6123772z"/>
	<path style="fill:#363636;" d="M78.0643158,40.8422127c2.2052383,1.7267456,8.4651871-5.9352608,1.6792679-11.2539539
		C77.7161942,28.0007725,71.2316284,35.4868584,78.0643158,40.8422127z M78.9039459,32.5548973
		c1.6441956,1.8965187,1.6440582,3.4240379,0,5.3206749C77.2594528,35.9807854,77.2594528,34.449688,78.9039459,32.5548973z"/>
	<path style="fill:#363636;" d="M86.089035,49.9209633c-0.3818817-0.0468712-3.6245804-0.3734093-5.8235855,1.4427681v-2.5088081
		c8.2822952,0.1481094,8.0841217-8.9353256,5.9445801-9.1950455c-2.7718124-0.3401985-5.9862747,0.5150566-7.3064117,3.414669
		c-1.3125534-2.882946-4.5420074-3.7596512-7.3064117-3.414669c-2.3531647,0.2856522-2.2085419,9.3404007,5.9452438,9.1950035
		v2.5094299c-2.1991348-1.8170891-5.4429474-1.4908409-5.8242493-1.4433479
		c-2.3285828,0.2826653-2.2341003,9.233551,5.8242493,9.1974983c0,3.7453804-0.4503937,5.7756424,1.361496,5.7756424
		c1.9434738,0,1.3615036-2.6930199,1.3615036-5.7756424C88.2766266,59.1547928,88.4314499,50.2053146,86.089035,49.9209633z
		 M84.7056046,42.3512917c-0.177124,2.5022659-1.259819,3.5850868-3.7620697,3.7623978
		C81.1206589,43.6114044,82.2033234,42.5284767,84.7056046,42.3512917z M73.1016312,42.3516235
		c2.5027924,0.1763191,3.5847244,1.2593498,3.7620697,3.7620659C74.3613434,45.9365005,73.2788239,44.853981,73.1016312,42.3516235z
		 M73.2226257,52.612709c2.5023041,0.1762848,3.5847549,1.2598381,3.7620621,3.7620659
		C74.482338,56.1975861,73.3998184,55.1150665,73.2226257,52.612709z M80.8225403,56.3751068
		c0.1771469-2.5026283,1.2594452-3.5855217,3.7620697-3.7627296C84.4044952,55.1166382,83.3269882,56.1976433,80.8225403,56.3751068
		z"/>
</g>
<g id="Cow_00000008120734660750328100000012627495796548692924_">
	<path style="fill:#363636;" d="M33.6760674,26.7748528c0,3.3618259-0.5022812,5.8518448,1.361496,5.8518448
		c2.2788696,0,1.0229187,0.725708,7.5500565-6.1772614v5.0454502c0,1.8013401,2.7229958,1.8013401,2.7229958,0
		c0-12.8485184,0.7302933-12.6609898-8.9115562-2.4637241v-2.8446522c1.4347649,0,0.7730026,0.5211315,6.9470901-10.2005882
		c1.7023048-2.9554691,3.4661789-2.230381,18.1967239-2.230381c1.1502647,0,0.9542885,0.3655539,3.7879906,8.6303463
		c0.5827866,1.7037754,3.1598663,0.8203564,2.5754089-0.8828449c-2.3852158-6.9581652-2.671524-10.4704952-6.3633995-10.4704952
		c-20.9367905,0-17.2258224-2.1899605-25.6450691,12.4309711h-2.3414001c-1.241127,0-1.8345108,1.5335274-0.9160843,2.3683262
		L33.6760674,26.7748528z"/>
	<path style="fill:#363636;" d="M61.3507462,26.7196751c0.5173798-2.8135529-3.6564293-0.4735851-5.5078125-3.1773796
		c-0.6431236-0.9399071-0.8947983-1.5331135-1.6958885-1.6078033c-10.3384972-0.9634438-9.0525703-2.5821266-6.5143089,9.8329582
		c0.1519318,0.7443027,0.8788185,1.2115498,1.6061401,1.0613422c1.8085785-0.3697128,0.9856873-1.9750519-0.3789291-8.6522846
		l4.3982697,0.4098454c1.21772,1.7810345,2.4832306,2.9221306,5.1395187,3.1271877
		c-0.4639969,2.5118141-1.3512878,4.7894344,0.4387627,5.1202374C60.6871109,33.1728935,60.564106,30.9768867,61.3507462,26.7196751
		z"/>
	<path style="fill:#363636;" d="M62.9462509,32.8563805c0.5598869,0,1.3713989-0.4422951,1.361496-1.3757877
		c-0.1290894-12.1741009,0.3413696-13.2589703-1.4878082-13.2589703c-0.5598831,0-1.3713989,0.442297-1.361496,1.3757896
		C61.5875359,31.7715111,61.1170731,32.8563805,62.9462509,32.8563805z"/>
</g>
<g id="Pasture_00000003783638224824622820000012063783522791249794_">
	<path style="fill:#363636;" d="M58.4735222,36.959156c-5.2511749,0.9471283-4.2415466,4.7176514-0.862236,3.1534462
		c1.0676003-0.4948959,2.7212791-0.5185966,2.443779-2.0552101C59.9221077,37.3174782,59.2167587,36.8265266,58.4735222,36.959156z"
		/>
	<path style="fill:#363636;" d="M62.1371956,40.0165405c1.8276672,0.8439827,4.3743782,1.6129646,4.5092964-0.3849182
		c0.1144333-1.6771355-1.5607452-1.250412-3.155777-1.9893913C61.4622002,36.7080421,60.5617981,39.3014908,62.1371956,40.0165405z"
		/>
	<path style="fill:#363636;" d="M49.8983536,36.9923935c-1.7643204-0.3645935-2.3149185,2.3026047-0.5504494,2.6664848
		c1.3976364,0.2883263,3.4577866,2.070076,4.1084213,0.0435448C53.9694824,38.105114,51.1286659,37.2459717,49.8983536,36.9923935z"
		/>
	<path style="fill:#363636;" d="M36.4755096,36.8351707c-1.8013382,0-1.8013382,2.7229919,0,2.7229919
		c1.716465,0,1.9479866,0.5444679,2.6385651,0.5444679C40.8723831,40.1026306,41.7954712,36.8351707,36.4755096,36.8351707z"/>
	<path style="fill:#363636;" d="M45.0779381,37.4763641c-0.7760468,0.341877-1.1950417,0.613472-2.143959,0.6963692
		c-1.7190971,0.1494865-1.6085815,2.7176743,0.1170006,2.7176743
		C48.3804741,40.8904076,47.3614922,36.4651375,45.0779381,37.4763641z"/>
</g>
<path id="Branch_00000119078602956703666500000013951100043664429475_" style="fill:#363636;" d="M61.0608978,85.7423553
	c-7.8761711-0.8023834-4.4397278-0.9592285-13.2586403,0.6056213l-1.264061-0.054924l0.9928284-0.7109146l4.7572594-1.1298141
	c1.7524376-0.4162292,1.1229248-3.0680161-0.6288948-2.6492081c-6.6468124,1.5784912-4.1850471,0.4707108-9.5301018,4.2982635
	l-4.5123253-0.1961517c-1.7762527-0.0959702-1.9338608,2.6416092-0.1183357,2.7203369l10.0345993,0.436348
	c5.6776161,2.9405136,7.0178757,4.1553116,7.8583145,2.5366058c0.833374-1.6098633-1.3492737-2.2320175-3.3052711-3.2450638
	l2.8219643-0.5007172l5.8761101,0.5986481C62.579628,88.6307526,62.850235,85.924469,61.0608978,85.7423553z"/>
</svg>
