<?xml version="1.0" encoding="utf-8"?>
<!-- Generator: Adobe Illustrator 30.0.0, SVG Export Plug-In . SVG Version: 9.03 Build 0)  -->
<svg version="1.1" id="Layer_2" xmlns="http://www.w3.org/2000/svg" xmlns:xlink="http://www.w3.org/1999/xlink" x="0px" y="0px"
	 viewBox="0 0 102.0277405 102.027771" style="enable-background:new 0 0 102.0277405 102.027771;" xml:space="preserve">
<g>
	<path style="fill:#FFFFFF;" d="M51.0140076,101.0280762c-27.578125,0-50.0141602-22.4365234-50.0141602-50.0141602
		S23.4358826,1.0002441,51.0140076,1.0002441c27.5776367,0,50.0141602,22.4360352,50.0141602,50.0136719
		S78.5916443,101.0280762,51.0140076,101.0280762z"/>
	<path style="fill:#FFFFFF;" d="M51.0138855,2.0000153c27.0695801,0,49.013855,21.9442596,49.013855,49.0138702
		s-21.9442749,49.0138855-49.013855,49.0138855C23.9442444,100.027771,2,78.0834961,2,51.0138855
		S23.9442444,2.0000153,51.0138855,2.0000153 M51.0138855,0.0000153C22.8847351,0.0000153,0,22.8847504,0,51.0138855
		s22.8847351,51.0138855,51.0138855,51.0138855s51.013855-22.8847351,51.013855-51.0138855
		S79.1430359,0.0000153,51.0138855,0.0000153L51.0138855,0.0000153z"/>
</g>
<g>
	<path style="fill:#FFFFFF;" d="M51.0140076,98.0280762c-25.9238281,0-47.0141602-21.0908203-47.0141602-47.0141602
		S25.0901794,4.0002441,51.0140076,4.0002441c25.9233398,0,47.0141602,21.090332,47.0141602,47.0136719
		S76.9373474,98.0280762,51.0140076,98.0280762z"/>
	<path style="fill:#1F77B4;" d="M51.0138855,6.0000153c24.8207397,0,45.013855,20.1931305,45.013855,45.0138702
		S75.8346252,96.027771,51.0138855,96.027771S6,75.8346252,6,51.0138855S26.1931458,6.0000153,51.0138855,6.0000153
		 M51.0138855,2.0000153C23.9442444,2.0000153,2,23.9442749,2,51.0138855s21.9442444,49.0138855,49.0138855,49.0138855
		c27.0695801,0,49.013855-21.9442749,49.013855-49.0138855S78.0834656,2.0000153,51.0138855,2.0000153L51.0138855,2.0000153z"/>
</g>
<path id="Wave_00000042700849983799699020000015435486138669394853_" style="fill:#363636;" d="M62.6909676,57.3889236
	c-7.9869614,5.3827667-15.4037056,5.3767166-23.3851051-0.0142899c-9.915266,6.204895-17.4880276,4.177269-16.7813759,1.7321167
	c1.0599098-3.6674881,3.6410522,4.0947952,16.8571625-5.0647278c8.0560837,6.2066422,15.2280121,6.1899643,23.2810631-0.020607
	c12.16436,9.0048523,15.9454803,1.7073135,16.8940582,5.1335335C80.213974,61.5309029,72.1279678,63.5824242,62.6909676,57.3889236z
	"/>
<path id="Earth_00000054960335340810726820000000275064324054946712_" style="fill:#363636;" d="M51.0138702,14.6423826
	c-20.055151,0-36.3715057,16.3163567-36.3715057,36.3715057s16.3163548,36.3715096,36.3715057,36.3715096
	S87.385376,71.0690384,87.385376,51.0138893S71.0690231,14.6423826,51.0138702,14.6423826z M29.0439072,50.4371414
	c0.0547199-4.9432793,0.8113804-9.6282043,2.1194019-13.8366356H42.558033
	c-0.290184,2.9197731-0.4963531,6.0014648-0.6010132,9.1977882c0.5541878,0.5669861,1.501976,1.417881,2.6679382,2.2543983
	c0.07724-4.2363548,0.3184357-8.0566292,0.6685753-11.4521866H56.734169
	c0.3499718,3.3936462,0.5910835,7.2114716,0.6684914,11.4449997c1.1656303-0.837265,2.1132927-1.6887436,2.6678162-2.2566414
	c-0.1047478-3.1929626-0.310833-6.2714539-0.6007233-9.1883583h11.3950539
	c1.3113022,4.2190704,2.0682526,8.9171219,2.1195679,13.8741531c0.9758072,0.2172737,1.7800827,0.210701,2.7216263,0.0009956
	c-0.0489502-4.9213791-0.7658463-9.6084213-2.021019-13.8751488h7.7273941
	c1.6125412,3.3872032,2.6785736,7.0827065,3.0754623,10.9741173c-7.6102829,7.0013885-13.5248718,6.9576111-21.8274536-1.5556564
	c-8.2580185,8.8016052-15.0067024,8.8282661-23.2720871,0.0335693c-8.984684,8.6388893-14.026947,8.3182373-21.8446503,1.49263
	c0.39925-3.8805656,1.4632511-7.5660553,3.0717182-10.9446602h7.728056
	c-1.2524281,4.2574196-1.969326,8.9330788-2.0210953,13.842659C27.3384895,50.7004013,28.0288544,50.6987267,29.0439072,50.4371414z
	 M46.8768616,17.963026c-2.2580833,4.1309891-3.445118,11.2972717-4.0157242,15.9144878H32.1091423
	C35.2667465,25.7378654,40.6010895,19.8002644,46.8768616,17.963026z M55.1508789,17.963026
	c6.2758179,1.8372803,11.6104889,7.7746735,14.7681808,15.9144878H59.1666489
	C58.5873337,29.1898308,57.4058418,22.0882969,55.1508789,17.963026z M79.9557724,33.8775139h-7.1707077
	c-2.100708-5.7666264-5.2222061-10.6101036-9.0121078-13.9924049C70.5615768,22.67803,76.2406616,27.6268768,79.9557724,33.8775139z
	 M56.4185562,33.8775139H45.6091843C48.4251595,12.0433159,53.6025734,12.0433168,56.4185562,33.8775139z M38.2554092,19.8848591
	c-3.7900734,3.3823032-6.9115677,8.2258625-9.0123138,13.9926548H22.07197
	C25.7872086,27.6267109,31.4664974,22.6776981,38.2554092,19.8848591z M51.0138702,84.6624069
	c-18.5918083,0-33.6960297-15.1492233-33.6461868-33.7409668c7.7132015,5.9443321,13.3546619,6.25774,21.9318638-1.0699425
	c7.9730644,7.3387985,15.4097252,7.3504791,23.3937454,0.0236015c8.124218,7.2645111,14.5519066,7.0059929,21.9688835,1.1313515
	C84.662178,69.5856781,69.5530167,84.6624069,51.0138702,84.6624069z"/>
<g id="Aragonite_00000168109404281805052260000012193210608997054880_">
	<path style="fill:#363636;" d="M73.1109619,66.7496185c0,2.5733261-3.8899841,2.5733261-3.8899841,0
		S73.1109619,64.1762924,73.1109619,66.7496185z"/>
	<path style="fill:#363636;" d="M36.4457703,72.4088287c0,2.5733261-3.8899879,2.5733261-3.8899879,0
		S36.4457703,69.8355026,36.4457703,72.4088287z"/>
	<path style="fill:#363636;" d="M32.9692955,65.9883728c0,1.2866592-1.944994,1.2866592-1.944994,0
		S32.9692955,64.7017136,32.9692955,65.9883728z"/>
	<path style="fill:#363636;" d="M68.5615616,73.7108459c0,1.2866592-1.9449921,1.2866592-1.9449921,0
		S68.5615616,72.4241867,68.5615616,73.7108459z"/>
	<path style="fill:#363636;" d="M66.0650177,70.1375351c0,1.2866592-1.9449921,1.2866592-1.9449921,0
		S66.0650177,68.8508759,66.0650177,70.1375351z"/>
</g>
<g id="pH_00000072273455748951300950000013597670049321015437_">
	<path style="fill:#363636;" d="M42.4938812,77.533287c-1.8332825,0-1.2996712-1.4989777-1.2996712-10.3485107
		c0-1.9559708,2.5830536-1.9326477,2.5830536,0.0162888h0.1299667c0.8495789-2.232666,5.6537361-2.4900436,5.6537361,2.4367981
		c0,6.5876846-4.8609276,5.4338379-5.6374474,3.5091171h-0.1299667
		C43.7935524,76.0255356,44.1242752,77.533287,42.4938812,77.533287z M45.353157,72.5782471
		c1.4630966,0,1.5190506-1.5016708,1.5190506-2.7698593c0-2.8585434-3.0786552-2.7568359-3.0786552-0.0811081
		C43.7935524,70.9634323,43.7626266,72.5782471,45.353157,72.5782471z"/>
	<path style="fill:#363636;" d="M63.1712799,75.995491c-0.8678169-0.8678131-1.6451225,0.2011642-2.4627266,1.0186768
		c0-13.1638832,0.4501381-13.6798706-1.3485336-13.6798706c-1.7075462,0-1.3402252,1.6318893-1.3402252,4.4840317H53.950264
		V64.78022c0-1.9483528-2.6887589-1.9683456-2.6887589,0c0,8.3014221-0.4962387,9.8043747,1.3402252,9.8043747
		c1.7201653,0,1.3485336-1.6450424,1.3485336-4.6299515h4.0695305v7.1048508
		c-0.8691216-0.8691254-1.6388092-1.9331207-2.5079308-1.064003c-1.03088,1.0300217,0.5186119,1.9625473,3.1075745,4.551506
		c0.3988762,0.39888,1.0450554,0.39888,1.4439316,0C62.6637383,77.946907,64.1698685,76.9940796,63.1712799,75.995491z"/>
</g>
</svg>
