<?xml version="1.0" encoding="utf-8"?>
<!-- Generator: Adobe Illustrator 30.0.0, SVG Export Plug-In . SVG Version: 9.03 Build 0)  -->
<svg version="1.1" id="Layer_1" xmlns="http://www.w3.org/2000/svg" xmlns:xlink="http://www.w3.org/1999/xlink" x="0px" y="0px"
	 viewBox="0 0 102.0277405 102.027771" style="enable-background:new 0 0 102.0277405 102.027771;" xml:space="preserve">
<g>
	<path style="fill:#FFFFFF;" d="M51.0140076,101.0280762c-27.578125,0-50.0141602-22.4365234-50.0141602-50.0141602
		c0-27.578125,22.4360352-50.0141602,50.0141602-50.0141602c27.5776367,0,50.0141602,22.4360352,50.0141602,50.0141602
		C101.0281677,78.5915527,78.5916443,101.0280762,51.0140076,101.0280762z"/>
	<path style="fill:#FFFFFF;" d="M51.0138855,2c27.0696411,0,49.013855,21.9442596,49.013855,49.0138855
		s-21.9442139,49.0138855-49.013855,49.0138855C23.9442749,100.027771,2,78.0834961,2,51.0138855S23.9442749,2,51.0138855,2
		 M51.0138855,0C22.8847351,0,0,22.8847351,0,51.0138855s22.8847351,51.0138855,51.0138855,51.0138855
		s51.013855-22.8847351,51.013855-51.0138855S79.1430359,0,51.0138855,0L51.0138855,0z"/>
</g>
<g>
	<path style="fill:#FFFFFF;" d="M51.0140076,98.0280762c-25.9238281,0-47.0141602-21.0908203-47.0141602-47.0141602
		c0-25.9238281,21.090332-47.0141602,47.0141602-47.0141602c25.9233398,0,47.0141602,21.090332,47.0141602,47.0141602
		C98.0281677,76.9372559,76.9373474,98.0280762,51.0140076,98.0280762z"/>
	<path style="fill:#9467BD;" d="M51.0138855,6c24.8207397,0,45.013855,20.1931458,45.013855,45.0138855
		S75.8346252,96.027771,51.0138855,96.027771S6,75.8346252,6,51.0138855S26.1931458,6,51.0138855,6 M51.0138855,2
		C23.9442749,2,2,23.9442596,2,51.0138855s21.9442749,49.0138855,49.0138855,49.0138855
		c27.0696411,0,49.013855-21.9442749,49.013855-49.0138855S78.0835266,2,51.0138855,2L51.0138855,2z"/>
</g>
<path id="Earth_00000078767278200408378360000009871990040052225954_" style="fill:#363636;" d="M82.5268326,30.5208759
	c-9.9952011-10.2455711-25.823864-11.7924461-37.5639-3.7509289l2.8280754,1.4140568
	c1.4150925-0.8539696,2.9153671-1.5799656,4.4851494-2.1622829c-0.8880386,0.9276772-1.7225189,1.9825802-2.4903145,3.1597214
	l2.4569511,1.2284966c2.1972237-3.2810459,4.9263268-5.4224701,7.9126625-5.9262581v12.1522141
	c-1.510704-0.0784035-2.9884949-0.2824554-4.4238701-0.6015549v2.7878113
	c1.4397774,0.2888107,2.9174042,0.4710464,4.4238701,0.5409317v10.289299h-4.4238701
	c0,1.0386467,0.0090065,1.6825981-0.0530167,2.7229919h4.4768867v8.7461052
	c-2.336834,0.1093979-4.605938,0.4802284-6.7710457,1.1053429c-0.4942741,1.1850777-1.0557327,2.3412399-1.694809,3.4548035
	c2.6426392-1.0526581,5.4898643-1.6978378,8.4658546-1.8498268v13.704174
	c-3.9844818-0.6723938-7.5126648-4.252388-9.9284821-9.5713196c-0.5809441,0.8316116-1.2021103,1.6353073-1.8654518,2.4070511
	c1.1255379,2.1955643,2.4428673,4.0968704,3.9146347,5.6343307c-2.2104759-0.8199844-4.2798958-1.9293976-6.1705704-3.2750626
	c-0.6810799,0.6375809-1.395607,1.2428741-2.1388054,1.8179169C72.7739487,96.0857391,107.6440506,56.2660484,82.5268326,30.5208759
	z M88.1286697,49.6523819h-9.2653503c-0.1355743-5.2601357-1.0538635-10.1173668-2.5665588-14.2610207
	c1.5041351-0.8798981,2.9228058-1.8886375,4.2417603-3.0128021C84.9536209,36.8844452,87.7893753,42.9434128,88.1286697,49.6523819z
	 M78.5273132,30.5208759c-1.0292664,0.8557968-2.1233521,1.6356831-3.2743988,2.3310146
	c-1.2430038-2.7057076-2.7623444-5.0198956-4.4951706-6.8301697C73.6084213,27.0791988,76.2301559,28.6107998,78.5273132,30.5208759
	z M72.8412094,34.1413422c-3.0509491,1.4385681-6.416214,2.314476-9.9627609,2.4947166V24.4919491
	C66.8820801,25.1677952,70.4245148,28.7799492,72.8412094,34.1413422z M62.8784485,52.3753738h13.2626266
	c-0.1168823,4.2055664-0.7748566,8.1539001-1.8451767,11.6271973c-3.4798203-1.6887856-7.3423462-2.7036324-11.41745-2.8909378
	V52.3753738z M62.8784485,49.6523819V39.3594704c3.9021301-0.1802444,7.6072311-1.1235008,10.9703751-2.686264
	c1.3339539,3.7851677,2.1599197,8.2171364,2.2922516,12.9791756H62.8784485z M62.8784485,77.5336075V63.8357887
	c3.7586136,0.1912498,7.3135605,1.1630135,10.5065613,2.7586021C70.9734268,72.6602936,67.1946182,76.8042831,62.8784485,77.5336075
	z M70.7577438,76.0060349c1.9883118-2.0771484,3.6962509-4.8170929,5.0267563-8.0515594
	c1.2920227,0.8226395,2.5129547,1.7473221,3.6414871,2.7735138C76.9235764,73.0034103,73.9868164,74.8082047,70.7577438,76.0060349z
	 M81.3418808,68.7952271c-1.413147-1.2953491-2.9514389-2.4561615-4.5971298-3.4581299
	c1.2456512-3.8468246,1.9969559-8.2423134,2.1185684-12.9617233h9.2653503
	C87.8104019,58.6686401,85.2961502,64.390892,81.3418808,68.7952271z"/>
<g id="UV_00000124153396615250508190000011669351804634532526_">
	<path style="fill:#363636;" d="M32.8055267,49.9914246c-0.4622841-1.7815781-2.2735081-0.8171234-6.5708179,0.296833
		l-2.3673286-0.6136055v-6.1051292l-2.7229939,0.7062187v4.6088448l-5.4117498,1.4036713l-4.9091663-1.2730789
		c-1.3748236-0.355648-2.3227997,1.390995-1.2314463,2.341568c0.3515778,0.3062553,0.1162615,0.1823959,6.1406126,1.7442513
		l5.2492075-1.3614998l5.2528648,1.3614998C31.3090591,51.7859039,33.2616005,51.7496872,32.8055267,49.9914246z"/>
	<path style="fill:#363636;" d="M36.7740097,60.4944954c-0.4613228-1.781826-2.27351-0.8171234-6.5708179,0.2968292
		l-4.7121792-1.2213478c-0.5927868-1.5958366-1.0246944-3.2527084-1.2946014-4.9450645l-2.8586521-0.7409554
		c0.2453079,2.0935593,0.7288628,4.1425362,1.4191666,6.114769l-3.0561371,0.7925987l-4.9091673-1.2730789
		c-1.3752651-0.3551292-2.322464,1.3907166-1.2316952,2.34132c0.3429251,0.2988243,0.1015215,0.1787605,6.1408625,1.7444992
		l5.2495403-1.361496l5.2528629,1.361496C35.2775421,62.2889748,37.2300224,62.2527733,36.7740097,60.4944954z"/>
</g>
<g id="O3_00000146474142718939736950000007301900955599645593_">
	<path style="fill:#363636;" d="M34.6446762,49.8734245c0-6.2417221,8.8118362-6.2417221,8.8118362,0
		c0,3.2736816-0.6792679,5.7624283-4.4022598,5.7624283C35.4279976,55.6358528,34.6446762,53.2043228,34.6446762,49.8734245z
		 M37.0651894,51.0653992c0,3.507309,3.9708099,3.507309,3.9708099,0c0-1.8086662,0.0241508-3.83918-1.9817467-3.83918
		C36.973362,47.2262192,37.0651894,49.4512177,37.0651894,51.0653992z"/>
	<path style="fill:#363636;" d="M45.8258362,54.9870148c0-0.0756721-0.0066223-0.4972649,0.5338287-0.4972649
		c1.1340332,0,0.2720375-1.4627113-0.4460754-0.5850182c-0.8797913,0.839798-1.7613716-0.0780296-1.2212257-0.753212
		c0.9047089-1.1631966,3.9415588-0.8742714,3.9415588,0.6288948c0,0.5996437-0.4241371,0.9945335-0.921402,1.0749702v0.0950661
		c1.5643044,0.2206078,1.4895172,2.6325836-1.2285385,2.6325836c-3.2165375,0-1.8484879-2.9221802-0.5777054-1.4698601
		c0.3872528,0.4733086,1.0384064,0.2798157,1.0384064-0.1974411C46.9446831,55.1580505,45.8258362,55.8552513,45.8258362,54.9870148
		z"/>
</g>
<g id="Shield_UV_00000005987608822200202750000004849317054659114117_">
	<path style="fill:#363636;" d="M37.5870514,24.9848938l-16.4426651,8.2214966v6.2043915l-1.4435978,0.3744049l-4.9091673-1.2730789
		c-1.3769741-0.3536835-2.3222504,1.3911209-1.2316122,2.3414001c0.3427734,0.2986908,0.1041155,0.1793709,6.1407795,1.7444191
		l5.2495403-1.361496l5.2528629,1.361496c6.042841-1.5660896,5.7968006-1.4429626,6.1427326-1.7444992
		c1.0878181-0.9481354,0.1493454-2.697422-1.2315712-2.34132l-4.9111614,1.2730789l-5.2528629-1.361496l-1.0829487,0.2808762
		v-3.8155823l13.7196712-6.8600025l13.7196732,6.8600025c0,20.7962799,1.9156952,27.2030525-13.7196732,38.9299622
		c-3.7409134-2.8057785-6.262331-4.424614-9.0669079-8.4712524l-3.8166199-0.989212
		c3.4783897,6.3328323,7.4633274,8.799324,12.8835278,12.8642044
		c18.7046928-14.0275841,16.4426651-19.2921333,16.4426651-44.0162964L37.5870514,24.9848938z"/>
</g>
</svg>
